<?xml version="1.0" encoding="UTF-8"?>
<svg version="1.1" xmlns="http://www.w3.org/2000/svg" width="512" height="512">
<path d="M0 0 C9.02489898 5.42407574 16.41354367 13.89388989 23.79345703 21.30493164 C24.7215065 22.23283508 25.64955597 23.16073853 26.60572815 24.11676025 C29.11762894 26.62837752 31.62646376 29.1430362 34.13470316 31.65830922 C36.76872003 34.29863461 39.40562418 36.93607346 42.04220581 39.57383728 C47.0198314 44.55455429 51.99490537 49.53781175 56.96903694 54.5220179 C62.63826164 60.20247221 68.31037187 65.88004157 73.98271012 71.55738652 C85.63748989 83.22258103 97.28869321 94.89134082 108.9375 106.5625 C122.04364169 100.32760602 132.95444845 85.61120682 142.99976349 75.45314026 C146.00588001 72.41392724 149.01835883 69.38107228 152.03216553 66.3494873 C153.07079039 65.30460462 154.10941419 64.25972089 155.14803696 63.21483612 C155.66735904 62.69239791 156.18668113 62.1699597 156.72174025 61.63169003 C163.71794004 54.59270604 170.70926267 47.54897156 177.68652344 40.49121094 C182.42226016 35.70093584 187.1668865 30.91966226 191.92180419 26.14842367 C194.42815058 23.63273842 196.92975936 21.11272318 199.42041779 18.58149719 C202.19153593 15.76534789 204.98207736 12.96894744 207.77441406 10.17382812 C208.58706726 9.3416275 209.39972046 8.50942688 210.23699951 7.65200806 C215.78228446 2.1459291 221.18657399 -1.85903816 229.375 -1.875 C235.24966496 -1.63191042 240.3396378 0.26994212 244.765625 4.17578125 C249.94724184 9.84789095 251.45400846 15.44746482 251.23828125 23.0546875 C249.75336289 35.43543536 236.48896681 45.1593952 228.19506836 53.41845703 C227.26716492 54.3465065 226.33926147 55.27455597 225.38323975 56.23072815 C222.87162248 58.74262894 220.3569638 61.25146376 217.84169078 63.75970316 C215.20136539 66.39372003 212.56392654 69.03062418 209.92616272 71.66720581 C204.94544571 76.6448314 199.96218825 81.61990537 194.9779821 86.59403694 C189.29752779 92.26326164 183.61995843 97.93537187 177.94261348 103.60771012 C166.27741897 115.26248989 154.60865918 126.91369321 142.9375 138.5625 C144.41041901 141.97279275 146.3123324 144.1783471 148.94075012 146.78607178 C149.77768906 147.62142456 150.61462799 148.45677734 151.47692871 149.31744385 C152.39695679 150.22556824 153.31698486 151.13369263 154.26489258 152.06933594 C155.24273538 153.04170138 156.22011544 154.01453235 157.19706726 154.98779297 C159.30049972 157.08151986 161.4069494 159.17214643 163.51572609 161.26049042 C166.85426188 164.56716989 170.18458918 167.88203389 173.51359558 171.19830322 C181.78611889 179.43675983 190.06784606 187.66594782 198.35455322 195.89013672 C204.79041605 202.27746447 211.22301252 208.6679986 217.64510268 215.06917787 C220.94908989 218.36168391 224.25988209 221.64713757 227.57604754 224.92737532 C229.64497019 226.97700505 231.70751747 229.03296092 233.76840401 231.09066772 C235.17101064 232.48738647 236.58111463 233.87656381 237.9914856 235.26544189 C244.86617218 242.15016057 250.97835016 248.61317164 251.25 258.75 C251.16528405 265.17146875 249.71036827 269.61222073 245.2890625 274.31640625 C239.52774539 279.53681367 234.44328049 281.05988948 226.703125 280.86328125 C214.16299814 279.49945389 204.43364296 266.20739742 196.08154297 257.82006836 C195.1534935 256.89216492 194.22544403 255.96426147 193.26927185 255.00823975 C190.75737106 252.49662248 188.24853624 249.9819638 185.74029684 247.46669078 C183.10627997 244.82636539 180.46937582 242.18892654 177.83279419 239.55116272 C172.8551686 234.57044571 167.88009463 229.58718825 162.90596306 224.6029821 C157.23673836 218.92252779 151.56462813 213.24495843 145.89228988 207.56761348 C134.23751011 195.90241897 122.58630679 184.23365918 110.9375 172.5625 C107.52720725 174.03541901 105.3216529 175.9373324 102.71392822 178.56575012 C101.87857544 179.40268906 101.04322266 180.23962799 100.18255615 181.10192871 C99.27443176 182.02195679 98.36630737 182.94198486 97.43066406 183.88989258 C96.45829862 184.86773538 95.48546765 185.84511544 94.51220703 186.82206726 C92.41848014 188.92549972 90.32785357 191.0319494 88.23950958 193.14072609 C84.93283011 196.47926188 81.61796611 199.80958918 78.30169678 203.13859558 C70.06324017 211.41111889 61.83405218 219.69284606 53.60986328 227.97955322 C47.22253553 234.41541605 40.8320014 240.84801252 34.43082213 247.27010268 C31.13831609 250.57408989 27.85286243 253.88488209 24.57262468 257.20104754 C22.52299495 259.26997019 20.46703908 261.33251747 18.40933228 263.39340401 C17.01261353 264.79601064 15.62343619 266.20611463 14.23455811 267.6164856 C7.34983943 274.49117218 0.88682836 280.60335016 -9.25 280.875 C-15.67146875 280.79028405 -20.11222073 279.33536827 -24.81640625 274.9140625 C-30.03681367 269.15274539 -31.55988948 264.06828049 -31.36328125 256.328125 C-29.99945389 243.78799814 -16.70739742 234.05864296 -8.32006836 225.70654297 C-6.9282132 224.31446877 -6.9282132 224.31446877 -5.50823975 222.89427185 C-2.99662248 220.38237106 -0.4819638 217.87353624 2.03330922 215.36529684 C4.67363461 212.73127997 7.31107346 210.09437582 9.94883728 207.45779419 C14.92955429 202.4801686 19.91281175 197.50509463 24.8970179 192.53096306 C30.57747221 186.86173836 36.25504157 181.18962813 41.93238652 175.51728988 C53.59758103 163.86251011 65.26634082 152.21130679 76.9375 140.5625 C75.46458099 137.15220725 73.5626676 134.9466529 70.93424988 132.33892822 C70.09731094 131.50357544 69.26037201 130.66822266 68.39807129 129.80755615 C67.47804321 128.89943176 66.55801514 127.99130737 65.61010742 127.05566406 C64.63226462 126.08329862 63.65488456 125.11046765 62.67793274 124.13720703 C60.57450028 122.04348014 58.4680506 119.95285357 56.35927391 117.86450958 C53.02073812 114.55783011 49.69041082 111.24296611 46.36140442 107.92669678 C38.08888111 99.68824017 29.80715394 91.45905218 21.52044678 83.23486328 C15.08458395 76.84753553 8.65198748 70.4570014 2.22989732 64.05582213 C-1.07408989 60.76331609 -4.38488209 57.47786243 -7.70104754 54.19762468 C-9.76997019 52.14799495 -11.83251747 50.09203908 -13.89340401 48.03433228 C-15.29601064 46.63761353 -16.70611463 45.24843619 -18.1164856 43.85955811 C-24.99117218 36.97483943 -31.10335016 30.51182836 -31.375 20.375 C-31.29028405 13.95353125 -29.83536827 9.51277927 -25.4140625 4.80859375 C-18.33226136 -1.60832213 -9.07934334 -4.04141502 0 0 Z " fill="#000000" transform="translate(146.0625,116.4375)"/>
</svg>
