<?xml version="1.0" encoding="UTF-8"?>
<svg version="1.1" xmlns="http://www.w3.org/2000/svg" width="512" height="512">
<path d="M0 0 C4.68656087 2.97133157 7.91495906 7.28867019 10.11328125 12.33984375 C10.37055016 14.4528141 10.37055016 14.4528141 10.38070679 16.76187134 C10.39350174 18.08157173 10.39350174 18.08157173 10.40655518 19.42793274 C10.4056488 20.38580185 10.40474243 21.34367096 10.40380859 22.33056641 C10.41052582 23.34586929 10.41724304 24.36117218 10.42416382 25.40724182 C10.44319636 28.77284623 10.44707237 32.13825131 10.44921875 35.50390625 C10.45564902 37.85403525 10.46237755 40.20416344 10.46939087 42.55429077 C10.48138101 47.49226736 10.4850705 52.43017394 10.48388672 57.36816406 C10.48368481 63.65080659 10.51084652 69.93299026 10.54543114 76.21552467 C10.56785015 81.07848097 10.5717195 85.94133009 10.57066727 90.80433273 C10.57300613 93.11723773 10.58173121 95.43014647 10.597332 97.74300003 C10.77027327 126.06194751 4.84607407 151.15833593 -13.88671875 173.33984375 C-14.90378906 174.55800781 -14.90378906 174.55800781 -15.94140625 175.80078125 C-32.81041882 195.31120504 -56.35306364 207.81533547 -81.88671875 211.33984375 C-84.87344454 211.4868422 -87.85645525 211.49452527 -90.84640503 211.49806213 C-91.73766244 211.50300011 -92.62891985 211.50793809 -93.54718506 211.5130257 C-96.52738587 211.52835825 -99.50756521 211.53674982 -102.48779297 211.54516602 C-104.62658374 211.55474787 -106.76537263 211.56475814 -108.90415955 211.57516479 C-114.70732613 211.60218656 -120.51050082 211.62321092 -126.31369543 211.64316678 C-132.37956563 211.66504314 -138.4454109 211.69242377 -144.51126099 211.71922302 C-155.99644573 211.76912757 -167.48164431 211.81407472 -178.96685612 211.85724539 C-192.04294192 211.90663687 -205.1190027 211.96154792 -218.19506431 212.01692498 C-245.09225912 212.13071068 -271.98947792 212.23755717 -298.88671875 212.33984375 C-297.95710579 213.25946396 -297.95710579 213.25946396 -297.00871277 214.19766235 C-291.15979093 219.98638756 -285.31817667 225.78236779 -279.48458385 231.58654213 C-276.48546647 234.57002659 -273.4836325 237.55066545 -270.4753418 240.52490234 C-267.57041838 243.39714797 -264.67295843 246.27673321 -261.78045082 249.16147995 C-260.67752121 250.25888118 -259.57196129 251.35364559 -258.46370506 252.44566727 C-256.90773072 253.97975569 -255.36150976 255.52309051 -253.81713867 257.06884766 C-252.49476448 258.3812291 -252.49476448 258.3812291 -251.14567566 259.72012329 C-245.88588895 265.81991687 -245.29134833 271.10091081 -245.47265625 278.921875 C-246.23595811 285.22271584 -249.25283038 289.02943013 -253.82421875 293.21484375 C-259.18073656 296.93161121 -264.39547298 298.24309178 -270.88671875 297.33984375 C-279.14714603 295.12707037 -284.3454493 290.7381817 -290.23608398 284.73510742 C-291.11054672 283.86794601 -291.98500946 283.00078461 -292.88597107 282.10734558 C-295.26055406 279.74611526 -297.62104112 277.37238478 -299.97548175 274.99117064 C-302.45212246 272.4917365 -304.94433757 270.00791308 -307.43434143 267.52180481 C-311.60953559 263.3483708 -315.77266664 259.16320027 -319.9284668 254.97045898 C-324.723777 250.13276647 -329.53656109 245.31302481 -334.35933155 240.50271815 C-339.01404682 235.85941404 -343.6573033 231.20481796 -348.29509163 226.54461098 C-350.2624369 224.56801088 -352.23345769 222.59518894 -354.20754814 220.62532616 C-356.96456908 217.87279161 -359.70461487 215.10373062 -362.44311523 212.33276367 C-363.25818542 211.52264832 -364.07325562 210.71253296 -364.9130249 209.87786865 C-370.99969497 203.67573408 -374.32668053 198.77455085 -374.26171875 189.77734375 C-374.26945312 188.70355469 -374.2771875 187.62976563 -374.28515625 186.5234375 C-372.49805836 172.24417491 -353.54415378 158.83348394 -343.9375 149.22265625 C-342.19346541 147.47540347 -340.44950404 145.72807761 -338.70561218 143.98068237 C-335.06714886 140.33625982 -331.42665368 136.69388094 -327.78491211 133.05273438 C-323.12279957 128.3907239 -318.46763209 123.72184375 -313.81416035 119.0512104 C-310.22219863 115.44813169 -306.62570267 111.84960555 -303.02791405 108.25234604 C-301.3091383 106.53239206 -299.59197965 104.81082047 -297.87648964 103.08758926 C-295.48138643 100.68268159 -293.08002199 98.28420058 -290.67700195 95.88720703 C-289.97400467 95.17859024 -289.27100739 94.46997345 -288.54670715 93.73988342 C-282.15046637 87.38429506 -277.06427693 83.23594411 -267.69921875 83.02734375 C-261.8736022 83.09854573 -257.46759848 83.58144015 -252.88671875 87.33984375 C-247.84156109 92.83862305 -245.74094619 97.12191115 -245.63671875 104.65234375 C-245.59804688 106.31716797 -245.59804688 106.31716797 -245.55859375 108.015625 C-246.13674173 113.87281461 -249.0528609 117.87361584 -252.97241211 122.10693359 C-253.77073456 122.96953796 -254.56905701 123.83214233 -255.39157104 124.72088623 C-259.37193892 128.8987609 -263.42268824 132.99896717 -267.515625 137.06640625 C-268.39073227 137.94009857 -269.26583954 138.81379089 -270.16746521 139.71395874 C-272.92568244 142.46663945 -275.68738012 145.215797 -278.44921875 147.96484375 C-280.33580588 149.84583415 -282.22158842 151.72762874 -284.10742188 153.609375 C-288.69786225 158.18887073 -293.29115481 162.76548988 -297.88671875 167.33984375 C-271.04325331 167.43346264 -244.19981249 167.50390885 -217.35621643 167.54709244 C-204.89106779 167.56768009 -192.42602085 167.59572791 -179.9609375 167.64160156 C-169.09095405 167.68158576 -158.22104429 167.70730413 -147.35098934 167.71619773 C-141.60028392 167.72139288 -135.84978922 167.7335238 -130.09915161 167.76276398 C-124.67533734 167.79011631 -119.2518186 167.79824902 -113.82794189 167.79227448 C-111.84797555 167.79336591 -109.86799829 167.80120072 -107.88809204 167.81666565 C-86.24136381 167.97731036 -66.9648157 164.07164322 -50.88671875 148.33984375 C-36.44527598 131.48327915 -33.27952997 113.24323075 -33.40086365 91.7434845 C-33.41837331 88.54724445 -33.4104883 85.35188898 -33.39660645 82.15563965 C-33.37148773 75.38364444 -33.37674186 68.61186642 -33.38671875 61.83984375 C-33.39828066 53.95629238 -33.39705487 46.07317838 -33.36265564 38.18968201 C-33.35559461 35.05202274 -33.37218586 31.91506922 -33.38977051 28.77746582 C-33.38406223 26.84838486 -33.37724474 24.91930676 -33.36914062 22.99023438 C-33.38045517 22.12776093 -33.39176971 21.26528748 -33.40342712 20.37667847 C-33.32993798 13.03458985 -31.29156722 7.79934786 -26.13671875 2.52734375 C-17.61977045 -3.20521761 -9.39712202 -4.56060671 0 0 Z " fill="#000000" transform="translate(437.88671875,108.66015625)"/>
</svg>
