<?xml version="1.0" encoding="UTF-8"?>
<svg version="1.1" xmlns="http://www.w3.org/2000/svg" width="512" height="512">
<path d="M0 0 C1.85995469 0.68078773 3.72089705 1.35888251 5.58276367 2.03442383 C9.41418849 3.42844683 13.23961697 4.83742459 17.06152344 6.25732422 C22.7101148 8.34845951 28.38567268 10.35697688 34.0703125 12.34765625 C36.7351425 13.28497691 39.39967702 14.22313257 42.06411743 15.16156006 C43.75821228 15.75755682 45.4528463 16.35202341 47.14804077 16.94488525 C49.50406468 17.77140085 51.85593183 18.60881413 54.20703125 19.44921875 C54.89262115 19.68721695 55.57821106 19.92521515 56.28457642 20.17042542 C61.94889167 22.21449052 67.17202134 24.79369361 70.625 29.875 C71.22248047 30.72578125 71.22248047 30.72578125 71.83203125 31.59375 C74.16470697 35.83159911 74.44684767 40.63453702 73.8125 45.375 C72.59570973 48.75430366 71.26520517 52.34903779 68.26255798 54.46963501 C65.93687315 57.52556692 66.4077853 60.93426405 66.44360352 64.62255859 C66.43983704 65.46352585 66.43607056 66.3044931 66.43218994 67.17094421 C66.4257522 68.99775452 66.42609244 70.82459831 66.43237495 72.65140915 C66.44146863 75.54327582 66.43128081 78.4344918 66.41575623 81.32632446 C66.37560994 89.54826821 66.37445395 97.77016208 66.37670898 105.9921875 C66.37676008 111.02080528 66.35759463 116.04907291 66.32737541 121.07759476 C66.31654066 123.92560588 66.32868726 126.7729513 66.34120178 129.62094116 C66.33229708 131.37018493 66.32222259 133.11942326 66.31079102 134.86865234 C66.32053452 135.65947708 66.33027802 136.45030182 66.34031677 137.26509094 C66.29138273 141.01827029 65.94383845 143.16897102 63.90635681 146.36514282 C61.66087159 148.5205455 60.86959579 149.0597089 57.8125 149 C57.1525 149.01289063 56.4925 149.02578125 55.8125 149.0390625 C52.64009097 147.98572356 51.60844706 146.14751014 49.8125 143.375 C49.41745721 140.63440515 49.24750224 138.2918998 49.26660156 135.55541992 C49.25626389 134.78415771 49.24592621 134.01289551 49.23527527 133.21826172 C49.20588379 130.68045003 49.20434892 128.14343714 49.203125 125.60546875 C49.18814083 123.84139997 49.17141318 122.0773452 49.15301514 120.31330872 C49.10935582 115.67895864 49.08934572 111.0447978 49.07427979 106.41027832 C49.05470357 101.67770199 49.01273413 96.94532988 48.97265625 92.21289062 C48.89736955 82.93365676 48.84706876 73.65446864 48.8125 64.375 C47.82507813 64.7359375 46.83765625 65.096875 45.8203125 65.46875 C44.52610209 65.93766681 43.23182794 66.40640769 41.9375 66.875 C41.28652344 67.11347656 40.63554687 67.35195312 39.96484375 67.59765625 C35.0390625 69.375 35.0390625 69.375 32.8125 69.375 C32.82821045 70.4894751 32.8439209 71.6039502 32.86010742 72.75219727 C32.91464631 76.91000057 32.9489368 81.0677726 32.97729492 85.22583008 C32.99232716 87.02113167 33.01275857 88.81639688 33.03881836 90.61157227 C33.07544786 93.20077526 33.0922821 95.78949028 33.10546875 98.37890625 C33.12095261 99.17398087 33.13643646 99.96905548 33.15238953 100.78822327 C33.15436505 107.41645981 31.82170675 112.05668452 27.375 117.1875 C21.28284496 122.38812016 15.55237589 121.74160534 7.8125 121.75 C6.62398438 121.77449219 5.43546875 121.79898438 4.2109375 121.82421875 C2.49777344 121.83001953 2.49777344 121.83001953 0.75 121.8359375 C-0.81427734 121.84826416 -0.81427734 121.84826416 -2.41015625 121.86083984 C-5.88708762 121.25262136 -7.08307865 120.16386295 -9.1875 117.375 C-9.1875 116.385 -9.1875 115.395 -9.1875 114.375 C-15.4575 114.375 -21.7275 114.375 -28.1875 114.375 C-27.40375 117.18 -26.62 119.985 -25.8125 122.875 C-15.44589062 161.81055956 -21.74834771 201.78209749 -41.47119141 236.64404297 C-43.12524963 239.46964609 -44.81271071 242.27425322 -46.50244141 245.07861328 C-57.82790101 264.03441788 -65.25003669 284.67425078 -70.0625 306.1875 C-70.34915527 307.4544873 -70.34915527 307.4544873 -70.64160156 308.74707031 C-73.76630456 323.75812085 -74.35348527 338.75211222 -74.4609375 354.03125 C-74.46675213 354.82789755 -74.47256676 355.6245451 -74.47855759 356.44533348 C-74.52994068 363.95438161 -74.56098752 371.46343664 -74.56835938 378.97265625 C-74.57340346 383.11854972 -74.59776729 387.26397846 -74.63368607 391.40971375 C-74.64338629 392.96918434 -74.64587036 394.52871949 -74.64051437 396.08821106 C-74.59955364 408.57412735 -76.02831596 420.0522591 -85.1875 429.375 C-96.45265347 439.05599127 -109.13314127 438.7924562 -123.1875 438.375 C-123.14109375 439.56996094 -123.0946875 440.76492188 -123.046875 441.99609375 C-122.70587154 454.33186167 -123.64912366 462.30737141 -132.3203125 471.6484375 C-137.36967132 476.31750988 -142.79858155 478.46391306 -149.62963867 478.55200195 C-150.50122116 478.56483719 -151.37280365 478.57767242 -152.27079773 478.59089661 C-153.67395988 478.60197701 -153.67395988 478.60197701 -155.10546875 478.61328125 C-156.07728592 478.621353 -157.04910309 478.62942474 -158.05036926 478.63774109 C-160.10721056 478.6515613 -162.1640746 478.66229267 -164.22094727 478.67016602 C-166.31476608 478.68167319 -168.40855585 478.70210486 -170.50219727 478.73168945 C-173.53682273 478.77455884 -176.57057729 478.79056308 -179.60546875 478.80078125 C-180.53078903 478.81828934 -181.45610931 478.83579742 -182.4094696 478.85383606 C-191.47796218 478.82393727 -198.81296089 475.71506123 -205.390625 469.453125 C-213.40596257 460.18321285 -212.75888292 449.91693497 -212.1875 438.375 C-213.33605469 438.42140625 -214.48460937 438.4678125 -215.66796875 438.515625 C-227.98316208 438.86820994 -238.86302007 438.49025571 -248.6875 430.125 C-257.45364006 421.43001367 -260.37402353 413.1226323 -260.49104309 400.87242126 C-260.49013168 399.82010818 -260.48922028 398.7677951 -260.48828125 397.68359375 C-260.49256638 396.57951675 -260.4968515 395.47543976 -260.50126648 394.33790588 C-260.50698603 392.0140959 -260.50752765 389.69026802 -260.50317383 387.36645508 C-260.50000684 383.82016465 -260.52352804 380.27470357 -260.54882812 376.72851562 C-260.55110072 374.46354271 -260.5518048 372.19856757 -260.55078125 369.93359375 C-260.559991 368.87925644 -260.56920074 367.82491913 -260.57868958 366.7386322 C-260.53161881 359.22165499 -259.43882771 353.5254428 -254.4375 347.625 C-253.98890625 347.07328125 -253.5403125 346.5215625 -253.078125 345.953125 C-248.22919556 341.9056715 -243.22301291 341.00049259 -237.05883789 341.03442383 C-236.38481934 341.03398575 -235.71080078 341.03354767 -235.01635742 341.03309631 C-232.81398369 341.03516717 -230.61239507 341.05841545 -228.41015625 341.08203125 C-226.87316809 341.08763331 -225.33617453 341.09190053 -223.79917908 341.09489441 C-219.77298946 341.10629526 -215.74712956 341.13572073 -211.72106934 341.16900635 C-207.6051072 341.19981049 -203.48909129 341.21342175 -199.37304688 341.22851562 C-191.31104738 341.26059563 -183.24931482 341.31173351 -175.1875 341.375 C-175.1875 339.065 -175.1875 336.755 -175.1875 334.375 C-175.9609375 334.43300781 -176.734375 334.49101562 -177.53125 334.55078125 C-183.78773942 334.82179255 -188.14517076 334.63216499 -193.37109375 331.0546875 C-198.8796721 325.96073333 -201.04305734 322.01579199 -202.5 314.75 C-202.66822266 313.99976563 -202.83644531 313.24953125 -203.00976562 312.4765625 C-203.76171913 309.01450719 -204.1875 305.93135263 -204.1875 302.375 C-204.81092285 302.39594727 -205.4343457 302.41689453 -206.07666016 302.43847656 C-237.74642104 303.36050019 -237.74642104 303.36050019 -250.1875 292.375 C-253.21062999 289.0988327 -253.21062999 289.0988327 -253.12109375 286.296875 C-252.95738281 285.58015625 -252.79367188 284.8634375 -252.625 284.125 C-251.92833432 279.58185042 -252.85884381 277.39207549 -255.12890625 273.50390625 C-257.02035127 269.70007771 -257.53847094 265.54244975 -258.1875 261.375 C-259.04601562 261.28992188 -259.90453125 261.20484375 -260.7890625 261.1171875 C-270.40136089 259.01794992 -278.44443412 251.02657756 -283.6640625 243.04296875 C-287.1751043 236.89414427 -288.32884977 232.66081156 -287.87133789 225.49902344 C-287.38518422 218.71755761 -287.38518422 218.71755761 -290.15625 212.66015625 C-291.89307843 211.17181984 -293.68206651 209.74239955 -295.515625 208.375 C-307.0524242 199.73926726 -312.8079231 183.88876245 -314.87890625 170.1171875 C-317.86806368 147.76649835 -316.15090865 124.57035922 -303.1875 105.375 C-299.16304859 100.55134553 -294.63682388 95.96164765 -289.359375 92.54296875 C-286.82260935 90.46435198 -286.82260935 90.46435198 -286.8046875 86.8359375 C-286.87112171 85.4728678 -286.9580275 84.11068292 -287.0625 82.75 C-287.45730737 71.86950131 -284.94607604 63.13611709 -278.1875 54.375 C-271.39643707 47.68625064 -263.98020116 43.59271553 -254.46166992 42.85229492 C-248.35381813 42.58633091 -248.35381813 42.58633091 -243.39453125 39.53515625 C-242.21471806 37.25368932 -242.21471806 37.25368932 -241.26171875 34.8203125 C-238.02048933 27.4420957 -231.169206 23.27384453 -223.97265625 20.34375 C-214.80544213 17.15515378 -206.0520191 16.65122032 -196.55859375 19.03515625 C-193.75875458 19.43645116 -192.88184521 19.03563952 -190.5625 17.5 C-185.12162473 14.07426372 -180.47981587 13.77526364 -174.1875 14.375 C-172.16512948 15.32894836 -170.1592304 16.32035351 -168.1875 17.375 C-165.26254245 17.10291093 -162.97759936 16.30503312 -160.1875 15.375 C-148.78925192 14.03627959 -137.87837229 17.14333735 -126.88720703 19.80249023 C-125.99630371 19.99141846 -125.10540039 20.18034668 -124.1875 20.375 C-123.13224121 20.63128174 -122.07698242 20.88756348 -120.98974609 21.15161133 C-115.79477045 21.45682532 -111.91741187 19.94344229 -107.09375 18.140625 C-105.63559372 17.61646248 -105.63559372 17.61646248 -104.14797974 17.08171082 C-102.06762869 16.33165291 -99.98981356 15.57453046 -97.91436768 14.81100464 C-94.66639234 13.61724208 -91.41140074 12.44482852 -88.15380859 11.27758789 C-79.38351233 8.12726098 -70.62687998 4.94436946 -61.92156982 1.61819458 C-59.17698766 0.57145053 -56.42546814 -0.45624602 -53.6730957 -1.4822998 C-51.89242474 -2.15720705 -50.12450239 -2.86546625 -48.35742188 -3.57519531 C-31.12180672 -10.02206608 -16.59896185 -6.28440789 0 0 Z " fill="#020101" transform="translate(406.1875,33.625)"/>
<path d="M0 0 C2 2 2 2 2.24050903 4.4803772 C2.23606781 5.52406464 2.23162659 6.56775208 2.22705078 7.64306641 C2.22689972 8.82413971 2.22674866 10.00521301 2.22659302 11.22207642 C2.21627045 12.50230682 2.20594788 13.78253723 2.1953125 15.1015625 C2.1924826 16.40829926 2.18965271 17.71503601 2.18673706 19.06137085 C2.17909776 22.53682081 2.1594469 26.01210383 2.1373291 29.48748779 C2.11687696 33.03330222 2.10773671 36.5791436 2.09765625 40.125 C2.07620116 47.08340195 2.04206173 54.04169296 2 61 C1.53112366 60.596604 1.06224731 60.19320801 0.5791626 59.77758789 C-0.04218567 59.24383545 -0.66353394 58.71008301 -1.30371094 58.16015625 C-1.91696228 57.63301025 -2.53021362 57.10586426 -3.16204834 56.56274414 C-16.59671055 44.38989606 -16.59671055 44.38989606 -33 38.4375 C-35.92708006 38.81337135 -35.92708006 38.81337135 -37.9375 40.125 C-39.52990283 42.93512264 -39.45319325 44.82764724 -39 48 C-36.25098876 51.25808739 -33.30042543 53.07942151 -29.5625 55.0625 C-16.14140328 62.74107367 -4.67234743 73.27019457 1 88 C2.08630118 92.29891481 2.14564076 96.50208307 2.14044189 100.90811157 C2.14341302 101.6983926 2.14638414 102.48867364 2.1494453 103.30290258 C2.15810811 105.9475513 2.15963846 108.59215463 2.16113281 111.23681641 C2.16576247 113.13414099 2.17078733 115.03146465 2.17617798 116.92878723 C2.18928435 122.07935442 2.19574277 127.22990858 2.20018864 132.38048983 C2.20312044 135.59656099 2.20722532 138.8126286 2.21169281 142.02869797 C2.22535919 152.08643884 2.23503171 162.14417159 2.2388947 172.20192111 C2.24338228 183.82215633 2.2609662 195.44227433 2.2898953 207.06247389 C2.31147443 216.04089368 2.32159686 225.01928038 2.32293582 233.99772584 C2.32398598 239.36280409 2.32993915 244.72777202 2.34775543 250.09282303 C2.36417242 255.13416275 2.36642281 260.17530842 2.35761642 265.21666527 C2.35684279 267.06985555 2.36123147 268.92305602 2.37107468 270.77622032 C2.38369577 273.29966667 2.37797176 275.82241527 2.36749268 278.34585571 C2.37957728 279.45406156 2.37957728 279.45406156 2.39190602 280.5846554 C2.36329089 283.51651616 2.34241095 285.51021721 0.63328171 287.95494652 C-1.72390432 289.46318938 -3.26069153 289.41089627 -6 289 C-9.27911624 286.58670922 -9.67321967 283.99387869 -10.39453125 280.1015625 C-10.62430664 278.91046875 -10.85408203 277.719375 -11.09082031 276.4921875 C-11.32897461 275.21601563 -11.56712891 273.93984375 -11.8125 272.625 C-12.33457178 269.9692079 -12.87048068 267.31632843 -13.41015625 264.6640625 C-13.54424896 264.00400208 -13.67834167 263.34394165 -13.8164978 262.66387939 C-16.53258287 249.42077795 -20.20079478 237.01139562 -25.9375 224.75 C-26.33227539 223.904375 -26.72705078 223.05875 -27.13378906 222.1875 C-29.70600752 216.95558683 -32.73172586 212.5056159 -36.45141602 208.01660156 C-38 206 -38 206 -39.078125 203.78588867 C-39.85016541 201.78714558 -39.85016541 201.78714558 -42.05859375 201.28515625 C-42.84363281 201.21167969 -43.62867188 201.13820313 -44.4375 201.0625 C-45.61119141 200.92521484 -45.61119141 200.92521484 -46.80859375 200.78515625 C-49.06728326 200.81541461 -49.06728326 200.81541461 -50.7421875 202.3046875 C-52.23463569 204.07683268 -52.23463569 204.07683268 -52.6875 207.0625 C-51.80784594 212.10051873 -49.56236616 214.19838619 -46.29296875 218.01171875 C-39.03058656 227.47632246 -30.28653219 243.98252649 -31 256 C-36.86492769 258.93246385 -46.22415774 257.50829296 -52.375 255.8125 C-56.40904125 254.43695806 -59.66598342 252.37811115 -63.18359375 250.01171875 C-65.86394175 248.51879373 -68.01150344 248.58300048 -71 249 C-71.99 249.33 -72.98 249.66 -74 250 C-77.91644371 243.811421 -79.98525061 238.2547009 -81 231 C-79.515 230.2575 -79.515 230.2575 -78 229.5 C-74.73068746 226.86006432 -74.73068746 226.86006432 -74 223.125 C-74.03293623 220.98153434 -74.03293623 220.98153434 -75 219 C-78.06199138 216.47428959 -81.47271724 214.79077433 -85 213 C-89.6612876 209.89247494 -92.86565815 206.19114036 -95 201 C-95.33011112 196.96404516 -94.94791406 193.02928441 -94.625 189 C-94.09326796 181.02626766 -94.09326796 181.02626766 -97.1484375 173.97265625 C-100.01132871 172.05491131 -102.92327804 170.54445752 -106 169 C-115.95324083 160.41554102 -121.72550882 146.95588197 -123 134 C-124.20476233 115.36699562 -123.72479041 96.80705661 -111.12890625 81.765625 C-109.47893885 80.05048218 -107.89913149 78.43413796 -106 77 C-105.34 77 -104.68 77 -104 77 C-100.60322872 87.07488957 -98.25989019 96.84751258 -97.765625 107.4921875 C-97.72977295 108.26014648 -97.6939209 109.02810547 -97.65698242 109.81933594 C-97.59508366 111.32985777 -97.54782392 112.84106693 -97.5168457 114.35253906 C-97.38205974 118.40139058 -97.38205974 118.40139058 -95.65234375 121.9765625 C-93.09625128 123.55976871 -90.93476735 123.24456395 -88 123 C-87.01 122.67 -86.02 122.34 -85 122 C-84.32238451 102.89541299 -84.73027848 85.1755559 -92.3125 67.375 C-94.29980223 62.35827363 -94.39465819 57.51903773 -94.4375 52.1875 C-94.4475708 51.37394043 -94.4576416 50.56038086 -94.46801758 49.72216797 C-94.3762736 43.41460695 -92.9286951 39.25014428 -88.75 34.375 C-80.85949336 27.56047154 -73.82480449 26.79554864 -63.70703125 27.21484375 C-59.67217798 27.32592044 -59.67217798 27.32592044 -56.0546875 25.75390625 C-54.82260618 23.70500065 -54.53501141 22.18060954 -54.25 19.8125 C-52.97943793 13.41803188 -49.2596731 9.5376841 -44.21875 5.61328125 C-38.3405494 2.06394402 -31.65662592 2.1050631 -25 3 C-22.85546875 3.94140625 -22.85546875 3.94140625 -21.125 5.0625 C-18.0903162 7.31350964 -18.0903162 7.31350964 -14.3125 7.0625 C-10.3835173 5.80226027 -9.2695416 4.36228385 -7 1 C-4.48718205 -0.25640898 -2.78302919 -0.20872719 0 0 Z " fill="#FA7E85" transform="translate(229,64)"/>
<path d="M0 0 C0.86753906 0.11472656 1.73507813 0.22945313 2.62890625 0.34765625 C9.04536578 1.41050537 15.43186688 2.6162895 21.8125 3.875 C21.83828125 4.74382812 21.8640625 5.61265625 21.890625 6.5078125 C22.22123899 13.22528774 22.4544364 17.67344021 26.8125 22.875 C26.8125 23.535 26.8125 24.195 26.8125 24.875 C30.47304364 26.83542448 34.31854288 28.25335128 38.203125 29.6953125 C38.90773865 29.95883514 39.61235229 30.22235779 40.33831787 30.49386597 C42.57894574 31.33131283 44.82070004 32.1656965 47.0625 33 C48.58601295 33.56880838 50.10945131 34.13781657 51.6328125 34.70703125 C55.35851497 36.0986703 59.08523036 37.48756409 62.8125 38.875 C62.8218457 40.01453125 62.83119141 41.1540625 62.84082031 42.328125 C62.88091055 46.58518528 62.94672095 50.84153727 63.02001953 55.09814453 C63.04811931 56.93496553 63.06938818 58.77190497 63.08349609 60.60888672 C63.10507897 63.26070314 63.15180499 65.91111185 63.203125 68.5625 C63.20435364 69.37428711 63.20558228 70.18607422 63.20684814 71.02246094 C63.34951197 76.66722699 64.34869078 81.30199322 67.8125 85.875 C72.42851628 90.01490581 77.39198194 90.47459742 83.37109375 90.484375 C84.16024673 90.50091125 84.94939972 90.51744751 85.76246643 90.53448486 C88.25839232 90.58268363 90.7537103 90.6042719 93.25 90.625 C94.95250408 90.6531834 96.65498019 90.68311412 98.35742188 90.71484375 C102.50906445 90.78843421 106.66037513 90.83817969 110.8125 90.875 C117.28136137 113.44079547 119.11280051 139.00998322 112.8125 161.875 C112.48185547 163.07914551 112.48185547 163.07914551 112.14453125 164.30761719 C108.31385368 177.7504579 102.716045 189.76113174 95.8125 201.875 C95.41208496 202.57995605 95.01166992 203.28491211 94.59912109 204.01123047 C93.81985503 205.38259699 93.04039948 206.75385586 92.26074219 208.125 C73.98608289 240.30599934 65.2692375 274.02393757 62.8125 310.875 C51.5925 310.875 40.3725 310.875 28.8125 310.875 C28.8125 298.47796736 28.8125 298.47796736 29.51171875 293.51953125 C29.66616455 292.41512695 29.82061035 291.31072266 29.97973633 290.17285156 C30.15142334 289.02268555 30.32311035 287.87251953 30.5 286.6875 C30.68006592 285.46643555 30.86013184 284.24537109 31.0456543 282.98730469 C36.23773589 248.78743362 43.41402873 209.65215573 67.34375 183.19140625 C69.22063986 180.23131134 69.15924665 178.31871671 68.8125 174.875 C67.87652685 172.85548938 67.87652685 172.85548938 65.8125 171.875 C60.01317004 171.32335642 56.98719513 172.53036245 52.125 175.625 C43.27547397 181.00084707 34.37700708 185.04883412 23.8125 183.875 C17.26085527 178.72840679 16.41158703 169.20055569 15.3125 161.5 C15.21839844 160.71488037 15.12429688 159.92976074 15.02734375 159.12084961 C14.53053112 155.46746874 14.17600627 153.35494771 11.91015625 150.36328125 C9.0364269 148.3243783 7.2576874 148.36188698 3.8125 148.875 C1.49557472 150.79982469 0.22238321 152.72488046 -1.01171875 155.44921875 C-1.31787109 156.11630859 -1.62402344 156.78339844 -1.93945312 157.47070312 C-2.24818359 158.16099609 -2.55691406 158.85128906 -2.875 159.5625 C-3.19533203 160.26439453 -3.51566406 160.96628906 -3.84570312 161.68945312 C-4.63229147 163.41525143 -5.41070597 165.1447711 -6.1875 166.875 C-6.5175 166.875 -6.8475 166.875 -7.1875 166.875 C-7.25752057 145.54389164 -7.31045404 124.21280218 -7.34293652 102.88160229 C-7.35841826 92.9775884 -7.3795327 83.07364584 -7.41381836 73.16967773 C-7.44368075 64.5393414 -7.46306549 55.9090567 -7.46976548 47.27867013 C-7.47368312 42.70715558 -7.48291711 38.1357888 -7.50469017 33.56432152 C-7.52500547 29.26421239 -7.5313439 24.96431234 -7.52682304 20.66415977 C-7.52765047 19.08348963 -7.53364564 17.50281273 -7.54511642 15.92218399 C-7.55998348 13.7684759 -7.55647546 11.61556323 -7.54826355 9.46183777 C-7.55102893 8.25521075 -7.55379431 7.04858374 -7.55664349 5.80539227 C-7.1875 2.875 -7.1875 2.875 -5.78482533 0.97455311 C-3.63727104 -0.50376189 -2.56920951 -0.34491969 0 0 Z " fill="#FDE87C" transform="translate(253.1875,64.125)"/>
<path d="M0 0 C1.26762177 -0.00412399 2.53524353 -0.00824799 3.84127808 -0.01249695 C5.24353241 -0.00188018 6.64578458 0.00902424 8.04803467 0.02018738 C9.52643822 0.02103371 11.00484303 0.02055839 12.48324585 0.01885986 C16.49538814 0.01799871 20.50726167 0.03564379 24.51934147 0.05658174 C28.71270957 0.07532856 32.90608376 0.0770974 37.0994873 0.08065796 C45.03967342 0.0899843 52.9797357 0.11460602 60.91986728 0.14470643 C69.95967384 0.17823213 78.99948629 0.19473184 88.03933954 0.20979273 C106.63443054 0.24115508 125.22940624 0.29392701 143.82440186 0.36076355 C143.90073784 7.33497573 143.95312159 14.30907934 143.98919678 21.28361511 C144.00424284 23.65409878 144.02468459 26.0245548 144.05072021 28.39494324 C144.08728691 31.81070295 144.10417054 35.22609317 144.11737061 38.64201355 C144.13285446 39.69441223 144.14833832 40.74681091 144.16429138 41.83110046 C144.1658917 48.89669335 143.67226918 55.0730276 138.85174561 60.6381073 C138.16209717 61.18595886 137.47244873 61.73381042 136.76190186 62.29826355 C136.06967529 62.86416199 135.37744873 63.43006042 134.66424561 64.0131073 C131.51221797 66.32191735 129.59614863 66.490375 125.72692871 66.50793457 C124.10767235 66.51866753 124.10767235 66.51866753 122.45570374 66.52961731 C121.26607529 66.53230621 120.07644684 66.53499512 118.85076904 66.5377655 C117.60190414 66.5443367 116.35303925 66.5509079 115.06632996 66.55767822 C110.91797652 66.57744962 106.7696618 66.58908236 102.62127686 66.5990448 C101.19311758 66.60309225 99.7649585 66.60720917 98.33679962 66.61139488 C91.62629036 66.63044956 84.91579211 66.64467916 78.20526099 66.65300685 C70.46082262 66.6627763 62.7166703 66.6890867 54.97233272 66.72950774 C48.98583381 66.7596806 42.99941683 66.77447688 37.01284337 66.77778786 C33.43774179 66.78013736 29.86294569 66.78908384 26.28792572 66.81424904 C22.29706194 66.8418869 18.30657349 66.83769498 14.31561279 66.83073425 C12.54331551 66.84994934 12.54331551 66.84994934 10.73521423 66.86955261 C3.23999179 66.82183879 -0.40715597 66.0217917 -5.82012939 60.7631073 C-9.16456212 56.56858465 -10.29283641 53.77506206 -10.3526001 48.47795105 C-10.36543533 47.48682312 -10.37827057 46.49569519 -10.39149475 45.47453308 C-10.39888168 44.40573914 -10.40626862 43.33694519 -10.41387939 42.23576355 C-10.42195114 41.13732117 -10.43002289 40.03887878 -10.43833923 38.90715027 C-10.45217139 36.58376136 -10.46289742 34.26035219 -10.47076416 31.93693542 C-10.48803059 28.37469988 -10.53193153 24.8133796 -10.57598877 21.25138855 C-10.58611098 18.99618705 -10.59462856 16.74097766 -10.60137939 14.48576355 C-10.61888748 13.4169696 -10.63639557 12.34817566 -10.6544342 11.24699402 C-10.65150864 10.25586609 -10.64858307 9.26473816 -10.64556885 8.24357605 C-10.65436821 6.93477478 -10.65436821 6.93477478 -10.66334534 5.59953308 C-10.17559814 3.36076355 -10.17559814 3.36076355 -8.53108883 1.74338818 C-5.50532397 -0.03267362 -3.5011695 -0.0087822 0 0 Z " fill="#8DB9C4" transform="translate(172.17559814453125,389.6392364501953)"/>
<path d="M0 0 C10.56 0 21.12 0 32 0 C38.02470985 22.59266195 40.32167966 48.05739413 34 71 C33.66935547 72.20414551 33.66935547 72.20414551 33.33203125 73.43261719 C29.50135368 86.8754579 23.903545 98.88613174 17 111 C16.59958496 111.70495605 16.19916992 112.40991211 15.78662109 113.13623047 C15.00735503 114.50759699 14.22789948 115.87885586 13.44824219 117.25 C-4.82641711 149.43099934 -13.5432625 183.14893757 -16 220 C-27.22 220 -38.44 220 -50 220 C-50 207.61421595 -50 207.61421595 -49.23046875 202.328125 C-49.06514648 201.17538086 -48.89982422 200.02263672 -48.72949219 198.83496094 C-48.46120605 197.06040527 -48.46120605 197.06040527 -48.1875 195.25 C-47.91728027 193.40970215 -47.91728027 193.40970215 -47.64160156 191.53222656 C-46.3594011 182.9607732 -44.89857397 174.45728407 -43 166 C-42.34 166.33 -41.68 166.66 -41 167 C-40.67128906 166.00484375 -40.34257812 165.0096875 -40.00390625 163.984375 C-33.58140173 144.94796991 -24.83196206 127.4766532 -15 110 C-9.12625198 99.54338851 -4.34295499 89.54838998 -1 78 C-0.70480469 77.05898437 -0.40960938 76.11796875 -0.10546875 75.1484375 C6.53923204 52.95579151 5.8135055 28.28065452 0.3671875 5.95336914 C0 4 0 4 0 0 Z " fill="#FCE35A" transform="translate(332,155)"/>
<path d="M0 0 C0.91189087 0.32027161 1.82378174 0.64054321 2.76330566 0.97052002 C5.72610786 2.01498767 8.68131812 3.07932026 11.63671875 4.14453125 C13.68474612 4.87163442 15.73317165 5.59761698 17.78198242 6.32250977 C22.96809658 8.16158604 28.14782305 10.01795727 33.32568359 11.88012695 C37.11176094 13.23987188 40.90118266 14.59012878 44.69075012 15.94010925 C48.84127396 17.41971652 52.98942299 18.90590281 57.13671875 20.39453125 C57.91278473 20.67283783 58.68885071 20.95114441 59.48843384 21.23788452 C61.64977363 22.01459929 63.80955105 22.79548161 65.96875 23.578125 C67.17893799 24.01568115 68.38912598 24.4532373 69.63598633 24.90405273 C72.32421875 25.95703125 72.32421875 25.95703125 73.32421875 26.95703125 C73.69921875 29.33203125 73.69921875 29.33203125 73.32421875 31.95703125 C70.10741757 34.21233227 66.82978685 35.63322007 63.1328125 36.91479492 C62.11985107 37.26914108 61.10688965 37.62348724 60.06323242 37.98857117 C58.97373291 38.36359268 57.8842334 38.7386142 56.76171875 39.125 C55.62001221 39.52350662 54.47830566 39.92201324 53.30200195 40.33259583 C49.64454917 41.6085068 45.98460031 42.87704936 42.32421875 44.14453125 C38.73382647 45.39065701 35.14404799 46.63848123 31.55541992 47.88967896 C29.19461886 48.71264542 26.83280027 49.53269881 24.4699707 50.349823 C18.1069808 52.56625111 11.84490743 54.93159251 5.61303711 57.49197388 C-12.96366367 65.01199636 -25.50707797 60.94122608 -43.67578125 54.14453125 C-45.81195714 53.36322107 -47.94884515 52.58385522 -50.08642578 51.80639648 C-54.32159428 50.26218258 -58.55192111 48.70574712 -62.77832031 47.13769531 C-67.98019969 45.20924393 -73.19507247 43.31986891 -78.41796875 41.44921875 C-80.49021784 40.70386717 -82.56212535 39.95757875 -84.63378906 39.21060181 C-86.51200411 38.53351031 -88.39076217 37.85792571 -90.26953125 37.18237305 C-91.37039063 36.77929932 -92.47125 36.37622559 -93.60546875 35.9609375 C-94.54632324 35.61877197 -95.48717773 35.27660645 -96.45654297 34.92407227 C-98.67578125 33.95703125 -98.67578125 33.95703125 -100.67578125 31.95703125 C-100.80078125 29.33203125 -100.80078125 29.33203125 -100.67578125 26.95703125 C-95.0854029 24.0331699 -89.5450202 21.70256626 -83.578125 19.671875 C-82.71823471 19.37399078 -81.85834442 19.07610657 -80.97239685 18.76919556 C-78.18782244 17.80567165 -75.40071108 16.84975997 -72.61328125 15.89453125 C-68.73883638 14.56075506 -64.86538953 13.22409923 -60.9921875 11.88671875 C-60.02933838 11.55481033 -59.06648926 11.22290192 -58.07446289 10.88093567 C-52.11608004 8.82103994 -46.18228412 6.70398587 -40.265625 4.52734375 C-38.85102662 4.0104056 -37.43639554 3.4935569 -36.02172852 2.97680664 C-34.06091149 2.26000336 -32.10235742 1.53899947 -30.1491394 0.80172729 C-28.37889436 0.13379502 -26.60166389 -0.51553354 -24.82421875 -1.1640625 C-23.84630371 -1.52943115 -22.86838867 -1.8947998 -21.86083984 -2.27124023 C-13.9371456 -4.19112353 -7.52593151 -2.74796351 0 0 Z " fill="#8CB8C3" transform="translate(390.67578125,45.04296875)"/>
<path d="M0 0 C13.3731825 8.51020704 27.4049036 18.77281009 31.53663254 35.12366295 C32.11726758 38.72793433 32.1447365 42.26844074 32.14044189 45.90811157 C32.14341302 46.6983926 32.14638414 47.48867364 32.1494453 48.30290258 C32.15810811 50.9475513 32.15963846 53.59215463 32.16113281 56.23681641 C32.16576247 58.13414099 32.17078733 60.03146465 32.17617798 61.92878723 C32.18928435 67.07935442 32.19574277 72.22990858 32.20018864 77.38048983 C32.20312044 80.59656099 32.20722532 83.8126286 32.21169281 87.02869797 C32.22535919 97.08643884 32.23503171 107.14417159 32.2388947 117.20192111 C32.24338228 128.82215633 32.2609662 140.44227433 32.2898953 152.06247389 C32.31147443 161.04089368 32.32159686 170.01928038 32.32293582 178.99772584 C32.32398598 184.36280409 32.32993915 189.72777202 32.34775543 195.09282303 C32.36417242 200.13416275 32.36642281 205.17530842 32.35761642 210.21666527 C32.35684279 212.06985555 32.36123147 213.92305602 32.37107468 215.77622032 C32.38369577 218.29966667 32.37797176 220.82241527 32.36749268 223.34585571 C32.37554908 224.08465961 32.38360548 224.82346351 32.39190602 225.5846554 C32.36329089 228.51651616 32.34241095 230.51021721 30.63328171 232.95494652 C28.27609568 234.46318938 26.73930847 234.41089627 24 234 C20.72088376 231.58670922 20.32678033 228.99387869 19.60546875 225.1015625 C19.37569336 223.91046875 19.14591797 222.719375 18.90917969 221.4921875 C18.67102539 220.21601563 18.43287109 218.93984375 18.1875 217.625 C17.66542822 214.9692079 17.12951932 212.31632843 16.58984375 209.6640625 C16.45575104 209.00400208 16.32165833 208.34394165 16.1835022 207.66387939 C12.67548235 190.55945832 6.97650124 175.51829877 -1 160 C-1.33 159.34 -1.66 158.68 -2 158 C-1.34 158 -0.68 158 0 158 C0 105.86 0 53.72 0 0 Z " fill="#FD636E" transform="translate(199,119)"/>
<path d="M0 0 C2.74786978 1.37393489 3.05284153 2.97628949 4.3125 5.75 C7.25297236 11.75953681 10.45953585 16.00947128 16.9140625 18.50390625 C23.43744677 20.05534783 30.47028606 19.16083803 37 18 C35.93386074 21.37521473 34.74917638 24.6564914 33.37109375 27.9140625 C19.84589396 60.42968917 13.46825783 96.99561622 11 132 C4.07 132 -2.86 132 -10 132 C-10.18536342 116.21421346 -10.32804227 100.42881336 -10.41449738 84.64221096 C-10.45571119 77.31179647 -10.51187617 69.98207146 -10.60351562 62.65209961 C-10.68337144 56.2616083 -10.73489298 49.87161639 -10.75270796 43.48063999 C-10.76311898 40.09780191 -10.78749848 36.71639217 -10.84584045 33.33401299 C-10.90392618 29.55311291 -10.91191218 25.77517098 -10.90820312 21.99389648 C-10.93696533 20.87827332 -10.96572754 19.76265015 -10.99536133 18.61322021 C-10.91595778 11.13194401 -10.91595778 11.13194401 -8.22825623 7.81047249 C-6.0682373 5.93788147 -6.0682373 5.93788147 -3.91338348 4.40255833 C-1.73466669 2.97372226 -1.73466669 2.97372226 0 0 Z " fill="#FBE67B" transform="translate(256,243)"/>
<path d="M0 0 C5.71037924 1.26897316 10.14254765 2.271068 15.37109375 4.3828125 C39.44644485 13.80352815 52.9161651 13.62102828 76.83081055 4.27099609 C77.53655716 3.99516693 78.24230377 3.71933777 78.96943665 3.43515015 C80.30760975 2.90734066 81.64299151 2.37238081 82.97502136 1.82925415 C86.27696284 0.51425704 88.36988855 0 92 0 C92.02465622 4.25414623 92.04283899 8.50825498 92.05493164 12.76245117 C92.05997101 14.21070073 92.06680253 15.65894517 92.07543945 17.10717773 C92.08752247 19.18474588 92.09323211 21.26224697 92.09765625 23.33984375 C92.10289307 24.59144287 92.10812988 25.84304199 92.11352539 27.13256836 C92 30 92 30 91 31 C89.47408892 31.10856654 87.94369982 31.1557568 86.4140625 31.17578125 C85.01800781 31.21155273 85.01800781 31.21155273 83.59375 31.24804688 C81.62261265 31.2908413 79.65119181 31.32218642 77.6796875 31.34179688 C76.74640625 31.36951172 75.813125 31.39722656 74.8515625 31.42578125 C73.99385254 31.44036377 73.13614258 31.45494629 72.25244141 31.4699707 C69.85248339 31.81617293 69.85248339 31.81617293 68.25927734 33.84838867 C66.86517341 36.06068418 66.86517341 36.06068418 66 39 C62.75068073 39.17455021 59.50256552 39.28091753 56.25 39.375 C55.32960938 39.42527344 54.40921875 39.47554687 53.4609375 39.52734375 C50.84522453 39.58420708 48.55516718 39.57122182 46 39 C43.484375 36.0390625 43.484375 36.0390625 42 33 C38.61947726 31.30973863 34.77739858 31.75555041 31.0546875 31.68359375 C30.1696756 31.66281265 29.2846637 31.64203156 28.37283325 31.62062073 C25.54030259 31.55513402 22.70767775 31.49624438 19.875 31.4375 C17.95702143 31.39431394 16.03905246 31.35069963 14.12109375 31.30664062 C9.4141577 31.19864599 4.70715217 31.09956622 0 31 C0 20.77 0 10.54 0 0 Z " fill="#668B96" transform="translate(331,109)"/>
<path d="M0 0 C49.5 0 99 0 150 0 C150 54.53663366 150 54.53663366 145.02734375 60.27734375 C144.33769531 60.82519531 143.64804687 61.37304688 142.9375 61.9375 C142.24527344 62.50339844 141.55304688 63.06929688 140.83984375 63.65234375 C137.39314007 66.17699931 135.14525098 66.11750117 130.8984375 66.09765625 C129.68671875 66.09443359 128.475 66.09121094 127.2265625 66.08789062 C125.95554687 66.07951172 124.68453125 66.07113281 123.375 66.0625 C122.09625 66.05798828 120.8175 66.05347656 119.5 66.04882812 C116.33331355 66.03701213 113.16665104 66.01907621 110 66 C111.98 62.04 113.96 58.08 116 54 C116.33 36.51 116.66 19.02 117 1 C78.39 1 39.78 1 0 1 C0 0.67 0 0.34 0 0 Z " fill="#789CAB" transform="translate(166,390)"/>
<path d="M0 0 C19.47 0 38.94 0 59 0 C59 15 59 15 56 21 C50.76476102 25.84259605 46.49304209 26.1744361 39.60546875 26.23828125 C38.78049393 26.246353 37.9555191 26.25442474 37.10554504 26.26274109 C35.35969128 26.27656573 33.61381068 26.28729513 31.86791992 26.29516602 C29.20764533 26.31236972 26.54861692 26.35626773 23.88867188 26.40039062 C22.19011328 26.41051904 20.49154415 26.41903468 18.79296875 26.42578125 C18.00214401 26.44328934 17.21131927 26.46079742 16.39653015 26.47883606 C11.12731337 26.45829999 8.19099701 25.46579114 4 22 C-2.02642655 14.86344224 0 10.56295594 0 0 Z " fill="#A4CFD3" transform="translate(209,471)"/>
<path d="M0 0 C2 2 2 2 2.24050903 4.4803772 C2.2338472 6.04590836 2.2338472 6.04590836 2.22705078 7.64306641 C2.22689972 8.82413971 2.22674866 10.00521301 2.22659302 11.22207642 C2.21627045 12.50230682 2.20594788 13.78253723 2.1953125 15.1015625 C2.1924826 16.40829926 2.18965271 17.71503601 2.18673706 19.06137085 C2.17909776 22.53682081 2.1594469 26.01210383 2.1373291 29.48748779 C2.11687696 33.03330222 2.10773671 36.5791436 2.09765625 40.125 C2.07620116 47.08340195 2.04206173 54.04169296 2 61 C1.53112366 60.596604 1.06224731 60.19320801 0.5791626 59.77758789 C-0.04218567 59.24383545 -0.66353394 58.71008301 -1.30371094 58.16015625 C-1.91696228 57.63301025 -2.53021362 57.10586426 -3.16204834 56.56274414 C-17.10134971 44.4453988 -17.10134971 44.4453988 -34 38 C-32.02 37.505 -32.02 37.505 -30 37 C-30 25.78 -30 14.56 -30 3 C-23 4 -23 4 -20.5 5.625 C-17.95527648 7.28613926 -17.95527648 7.28613926 -14.4375 7 C-10.36545083 5.81540388 -9.32664271 4.44687809 -7 1 C-4.48718205 -0.25640898 -2.78302919 -0.20872719 0 0 Z " fill="#FC636E" transform="translate(229,64)"/>
<path d="M0 0 C4.29934032 0.78967475 5.46793287 2.03232937 8.0625 5.5625 C8.76681445 9.40731388 8.67625827 13.16545808 8.5625 17.0625 C8.53482544 18.68236816 8.53482544 18.68236816 8.5065918 20.33496094 C8.29420774 28.10716442 7.61115171 35.1734654 5.0625 42.5625 C4.7221875 43.58214844 4.381875 44.60179687 4.03125 45.65234375 C0.13753116 56.083827 -5.6963914 64.21070517 -15.609375 69.5625 C-18.65490338 70.87064642 -20.68751016 71.3363071 -23.9375 70.5625 C-26.3125 69 -26.3125 69 -27.9375 66.5625 C-28.49009758 62.69431697 -28.68131451 60.56378876 -26.3125 57.375 C-23.9375 55.5625 -23.9375 55.5625 -21 53.6875 C-13.11524998 48.21644897 -10.09778867 40.69435666 -8.34765625 31.4453125 C-7.69149679 25.23366962 -7.65419972 18.99158322 -7.59570312 12.74804688 C-7.56798828 11.75482422 -7.54027344 10.76160156 -7.51171875 9.73828125 C-7.49713623 8.84020752 -7.48255371 7.94213379 -7.4675293 7.0168457 C-6.54425099 2.74152703 -4.20632463 0.80546642 0 0 Z " fill="#040202" transform="translate(182.9375,150.4375)"/>
<path d="M0 0 C0.02465622 4.25414623 0.04283899 8.50825498 0.05493164 12.76245117 C0.05997101 14.21070073 0.06680253 15.65894517 0.07543945 17.10717773 C0.08752247 19.18474588 0.09323211 21.26224697 0.09765625 23.33984375 C0.10551147 25.21724243 0.10551147 25.21724243 0.11352539 27.13256836 C0 30 0 30 -1 31 C-2.56172745 31.08685603 -4.12729344 31.10702219 -5.69140625 31.09765625 C-6.54162354 31.09515869 -7.39184082 31.09266113 -8.26782227 31.09008789 C-9.35506592 31.08098389 -10.44230957 31.07187988 -11.5625 31.0625 C-15.006875 31.041875 -18.45125 31.02125 -22 31 C-22 23.41 -22 15.82 -22 8 C-22.66 7.67 -23.32 7.34 -24 7 C-20.75362269 5.82307643 -17.5023602 4.66027726 -14.25 3.5 C-13.32960938 3.16613281 -12.40921875 2.83226563 -11.4609375 2.48828125 C-10.57148438 2.17246094 -9.68203125 1.85664062 -8.765625 1.53125 C-7.94868164 1.23798828 -7.13173828 0.94472656 -6.29003906 0.64257812 C-4 0 -4 0 0 0 Z " fill="#527781" transform="translate(423,109)"/>
<path d="M0 0 C8.51324677 2.00311689 15.67993006 11.71576529 20.1875 18.75 C21.24247183 22.08148999 21.05260177 23.22779995 20.1875 26.75 C18.125 29.3125 18.125 29.3125 15.1875 30.75 C10.92831313 30.82605691 8.94764956 30.45301414 5.796875 27.5390625 C3.16388598 24.72475987 0.53345662 21.91105719 -2.0625 19.0625 C-2.93390625 18.10988281 -3.8053125 17.15726563 -4.703125 16.17578125 C-7.04673864 13.48062557 -7.71905667 12.450825 -8.1875 8.9375 C-7.8125 5.75 -7.8125 5.75 -5.6875 2.875 C-2.8125 0.75 -2.8125 0.75 0 0 Z " fill="#000000" transform="translate(105.8125,43.25)"/>
<path d="M0 0 C3.23577605 1.58395881 6.0135402 3.63628452 8.875 5.8125 C10.01195312 6.63331055 10.01195312 6.63331055 11.171875 7.47070312 C14.41579347 9.85169311 16.74342277 11.61513416 19 15 C19.4375 17.875 19.4375 17.875 19 21 C16.875 23.875 16.875 23.875 14 26 C9.16069799 26.558381 6.60930168 25.57404308 2.625 22.875 C1.68140625 22.23949219 0.7378125 21.60398437 -0.234375 20.94921875 C-10.72082879 13.55834242 -10.72082879 13.55834242 -12 11 C-12.35173852 7.20122401 -12.52701444 4.85639847 -10.5 1.5625 C-7.0153329 -0.61541694 -3.94930197 -0.73117771 0 0 Z " fill="#000000" transform="translate(392,297)"/>
<path d="M0 0 C2.5 1.5625 2.5 1.5625 4 4 C4.5625 7.4375 4.5625 7.4375 4 11 C0.55317115 14.94922641 -3.37384845 17.84817778 -7.6875 20.75 C-8.26822266 21.14832031 -8.84894531 21.54664063 -9.44726562 21.95703125 C-13.94412934 25.02425621 -16.44922298 26.65303259 -22 26 C-25.32274404 23.54405875 -26.77618008 22.0743356 -27.625 18 C-26.36213458 11.938246 -19.98448505 8.22625946 -15.1875 4.6875 C-14.60935547 4.23310547 -14.03121094 3.77871094 -13.43554688 3.31054688 C-8.80809942 -0.08973219 -5.71975794 -0.60271422 0 0 Z " fill="#000000" transform="translate(93,297)"/>
<path d="M0 0 C3.33714935 0.86677364 6.52763846 2.02978582 9.75 3.25 C10.59949219 3.55035156 11.44898437 3.85070312 12.32421875 4.16015625 C20.11100232 7.05098427 20.11100232 7.05098427 22 11 C22.48505011 14.88040089 22.56851618 17.0761612 20.5 20.4375 C17.03736628 22.60164608 13.93964454 22.4505467 10 22 C6.78812096 21.13863555 3.75970109 19.95252398 0.6875 18.6875 C-0.10978516 18.37876953 -0.90707031 18.07003906 -1.72851562 17.75195312 C-8.65952373 14.98304745 -8.65952373 14.98304745 -11 12 C-11.75471698 5.20754717 -11.75471698 5.20754717 -9.4375 1.5 C-6.03775222 -0.59215248 -3.98638708 -0.29907741 0 0 Z " fill="#000000" transform="translate(55,123)"/>
<path d="M0 0 C2.09765625 0.3359375 2.09765625 0.3359375 4.16015625 1.7734375 C6.60204733 8.44793978 4.91644324 14.97525036 3.34765625 21.6484375 C3.19095459 22.34227539 3.03425293 23.03611328 2.87280273 23.75097656 C1.79302587 28.0121372 0.57169357 30.6053712 -2.90234375 33.3359375 C-6.39198646 34.71342804 -7.62711941 34.44708579 -11.15234375 33.0234375 C-13.90234375 31.3359375 -13.90234375 31.3359375 -14.90234375 29.3359375 C-15.31059521 23.38933128 -14.12249626 18.268609 -12.58984375 12.5859375 C-12.26983398 11.31169922 -12.26983398 11.31169922 -11.94335938 10.01171875 C-11.61948242 8.78775391 -11.61948242 8.78775391 -11.2890625 7.5390625 C-11.09530029 6.80333008 -10.90153809 6.06759766 -10.7019043 5.30957031 C-8.54716895 -0.00917183 -5.2363664 -0.22137484 0 0 Z " fill="#000000" transform="translate(288.90234375,-0.3359375)"/>
<path d="M0 0 C1.77429509 2.54755207 2.0330052 4.57903622 2.15625 7.66015625 C0.94184941 10.62869101 0.03803487 12.18142275 -2.80078125 13.72265625 C-7.27518662 15.10116368 -11.75691427 15.47736388 -16.40625 15.91015625 C-17.35177734 16.01328125 -18.29730469 16.11640625 -19.27148438 16.22265625 C-20.18349609 16.3103125 -21.09550781 16.39796875 -22.03515625 16.48828125 C-22.86217041 16.56981445 -23.68918457 16.65134766 -24.54125977 16.73535156 C-27.17480054 16.64934472 -28.62472945 16.05050323 -30.84375 14.66015625 C-32.94054403 11.96427822 -32.83885821 10.56721225 -32.65625 7.09765625 C-31.82442494 3.5783964 -31.61729648 2.74031611 -28.84375 0.66015625 C-21.6215432 -1.33475169 -6.38514859 -4.64005501 0 0 Z " fill="#000000" transform="translate(64.84375,217.33984375)"/>
<path d="M0 0 C3.20133643 1.00667025 4.21497815 2.84073162 6 5.62890625 C6.90268803 8.27289063 7.62948493 10.73809674 8.25 13.44140625 C8.42273438 14.11494141 8.59546875 14.78847656 8.7734375 15.48242188 C9.93411449 20.29554668 10.29214194 24.67842822 10 29.62890625 C8.07451763 32.41015857 6.69737619 33.36068464 3.5625 34.56640625 C0.04768947 34.65213334 -1.31251444 33.89205199 -4 31.62890625 C-8.31378586 23.83090873 -11.11129182 13.51924077 -10 4.62890625 C-7.45728372 0.39104579 -4.59464958 0.15255672 0 0 Z " fill="#000000" transform="translate(193,-0.62890625)"/>
<path d="M0 0 C3.54900806 1.19816939 4.7516944 2.80453855 6.7421875 5.92578125 C7.34230655 9.60151041 7.26893895 11.17617341 5.1171875 14.23828125 C-0.00297636 17.87629241 -5.85241664 16.90227986 -11.7578125 16.17578125 C-12.49128906 16.10101563 -13.22476562 16.02625 -13.98046875 15.94921875 C-18.60697893 15.40297605 -22.21290543 14.3976689 -26.2578125 11.92578125 C-27.81556186 8.81028253 -27.82261872 5.32134245 -27.2578125 1.92578125 C-22.77204237 -5.03814161 -7.01418034 -0.86584022 0 0 Z " fill="#000000" transform="translate(438.2578125,217.07421875)"/>
<path d="M0 0 C3.81412396 1.30781391 7.62601043 2.62203015 11.4375 3.9375 C12.52611328 4.31068359 13.61472656 4.68386719 14.73632812 5.06835938 C16.28803711 5.60493164 16.28803711 5.60493164 17.87109375 6.15234375 C18.82943115 6.48226318 19.78776855 6.81218262 20.77514648 7.15209961 C23 8 23 8 24 9 C24.375 11.375 24.375 11.375 24 14 C19.87667575 17.04979604 15.11401791 18.53812362 10.3125 20.1875 C9.54099609 20.46013672 8.76949219 20.73277344 7.97460938 21.01367188 C2.27449483 23 2.27449483 23 0 23 C0.165 22.21625 0.33 21.4325 0.5 20.625 C1.46812394 13.60610145 1.08072889 6.9904289 0 0 Z " fill="#7A9EAE" transform="translate(440,63)"/>
<path d="M0 0 C0.86753906 0.11472656 1.73507813 0.22945313 2.62890625 0.34765625 C9.04536578 1.41050537 15.43186688 2.6162895 21.8125 3.875 C21.8125 7.175 21.8125 10.475 21.8125 13.875 C16.16706911 12.20841994 11.38418647 9.5780188 6.29101562 6.70898438 C2.83528584 4.80710257 -0.22374167 3.23668372 -4.1875 2.875 C-5.48746712 3.95000832 -5.48746712 3.95000832 -5.3049612 6.50685787 C-5.30144177 7.69060781 -5.29792234 8.87435774 -5.29429626 10.09397888 C-5.29373956 10.75087411 -5.29318285 11.40776933 -5.29260927 12.08457047 C-5.28955558 14.30177818 -5.27936111 16.51889785 -5.26928711 18.73608398 C-5.26573357 20.31917222 -5.26264688 21.90226156 -5.25999451 23.48535156 C-5.25342823 26.90229535 -5.24385902 30.3192133 -5.23209953 33.73614311 C-5.2138659 39.13456028 -5.20422361 44.53297102 -5.19618225 49.93141174 C-5.17198517 65.28511323 -5.13611852 80.63877624 -5.09155273 95.99243164 C-5.06703329 104.46601191 -5.04965382 112.93957703 -5.03999335 121.41318756 C-5.03343384 126.78417145 -5.01784025 132.15503122 -4.99567592 137.52597225 C-4.98397764 140.86280065 -4.98058037 144.19959847 -4.97957802 147.53644562 C-4.97742341 149.08850796 -4.97180744 150.64056976 -4.9625473 152.19260597 C-4.95042866 154.3048576 -4.95050163 156.41676191 -4.95372009 158.52903748 C-4.94900649 160.30522791 -4.94900649 160.30522791 -4.94419765 162.11730099 C-5.1875 164.875 -5.1875 164.875 -7.1875 166.875 C-7.25752057 145.54389164 -7.31045404 124.21280218 -7.34293652 102.88160229 C-7.35841826 92.9775884 -7.3795327 83.07364584 -7.41381836 73.16967773 C-7.44368075 64.5393414 -7.46306549 55.9090567 -7.46976548 47.27867013 C-7.47368312 42.70715558 -7.48291711 38.1357888 -7.50469017 33.56432152 C-7.52500547 29.26421239 -7.5313439 24.96431234 -7.52682304 20.66415977 C-7.52765047 19.08348963 -7.53364564 17.50281273 -7.54511642 15.92218399 C-7.55998348 13.7684759 -7.55647546 11.61556323 -7.54826355 9.46183777 C-7.55102893 8.25521075 -7.55379431 7.04858374 -7.55664349 5.80539227 C-7.1875 2.875 -7.1875 2.875 -5.78482533 0.97455311 C-3.63727104 -0.50376189 -2.56920951 -0.34491969 0 0 Z " fill="#E5D271" transform="translate(253.1875,64.125)"/>
<path d="M0 0 C6.93691735 1.34262917 12.25034859 3.30013944 19 6 C19 18.21 19 30.42 19 43 C18.67 43 18.34 43 18 43 C18.01160156 42.42145264 18.02320313 41.84290527 18.03515625 41.24682617 C18.39584894 26.18767985 18.39584894 26.18767985 11.34375 13.37109375 C10.5703125 12.58863281 9.796875 11.80617188 9 11 C7.33077669 9.1272757 5.66405021 7.25232247 4 5.375 C3.236875 4.55773437 2.47375 3.74046875 1.6875 2.8984375 C0 1 0 1 0 0 Z " fill="#F0D858" transform="translate(297,97)"/>
<path d="M0 0 C8.80171974 0.61358142 17.35954742 2.29549385 26 4 C26 7.3 26 10.6 26 14 C20.35456911 12.33341994 15.57168647 9.7030188 10.47851562 6.83398438 C7.02024237 4.93070275 3.96625664 3.35144046 0 3 C-0.99 3.495 -0.99 3.495 -2 4 C-1.34 2.68 -0.68 1.36 0 0 Z " fill="#F2D957" transform="translate(249,64)"/>
</svg>
