<svg xmlns="http://www.w3.org/2000/svg" version="1.1" xmlns:xlink="http://www.w3.org/1999/xlink" xmlns:svgjs="http://svgjs.dev/svgjs" width="1500" height="1500" viewBox="0 0 1500 1500"><rect width="1500" height="1500" fill="#ffffff"></rect><g transform="matrix(0.6666666666666666,0,0,0.6666666666666666,249.39393939393938,683.0259199776327)"><svg viewBox="0 0 396 53" data-background-color="#000000" preserveAspectRatio="xMidYMid meet" height="200" width="1500" xmlns="http://www.w3.org/2000/svg" xmlns:xlink="http://www.w3.org/1999/xlink"><g id="tight-bounds" transform="matrix(1,0,0,1,0.2400000000000091,0.1221968088910046)"><svg viewBox="0 0 395.52 52.755606382217984" height="52.755606382217984" width="395.52"><g><svg viewBox="0 0 473.01099634011615 63.09158054556007" height="52.755606382217984" width="395.52"><g transform="matrix(1,0,0,1,0,1.1108744283226955)"><svg viewBox="0 0 395.52 60.86983168891468" height="60.86983168891468" width="395.52"><g id="textblocktransform"><svg viewBox="0 0 395.52 60.86983168891468" height="60.86983168891468" width="395.52" id="textblock"><g><svg viewBox="0 0 395.52 60.86983168891468" height="60.86983168891468" width="395.52"><g transform="matrix(1,0,0,1,0,0)"><svg width="395.52" viewBox="2.73 -38.35 252.38000000000002 38.84" height="60.86983168891468" data-palette-color="url(#7753958c-d786-44cf-9848-609a1ddfc226)"></svg></g></svg></g></svg></g></svg></g><g transform="matrix(1,0,0,1,409.8899063857922,0)"><svg viewBox="0 0 63.12108995432396 63.09158054556007" height="63.09158054556007" width="63.12108995432396"><g><svg xmlns="http://www.w3.org/2000/svg" xmlns:xlink="http://www.w3.org/1999/xlink" version="1.1" x="0" y="0" viewBox="0.7607695154586737 0.7749999999999999 30.439230484541326 30.425" enable-background="new 0 0 32 32" xml:space="preserve" height="63.09158054556007" width="63.12108995432396" class="icon-icon-0" data-fill-palette-color="accent" id="icon-0"></svg></g></svg></g></svg></g><defs></defs><mask id="c748b69e-8770-401f-aa3f-d7f7b98e37d6"><g id="SvgjsG2777"><svg viewBox="0 0 395.52 52.755606382217984" height="52.755606382217984" width="395.52"><g><svg viewBox="0 0 473.01099634011615 63.09158054556007" height="52.755606382217984" width="395.52"><g transform="matrix(1,0,0,1,0,1.1108744283226955)"><svg viewBox="0 0 395.52 60.86983168891468" height="60.86983168891468" width="395.52"><g id="SvgjsG2776"><svg viewBox="0 0 395.52 60.86983168891468" height="60.86983168891468" width="395.52" id="SvgjsSvg2775"><g><svg viewBox="0 0 395.52 60.86983168891468" height="60.86983168891468" width="395.52"><g transform="matrix(1,0,0,1,0,0)"><svg width="395.52" viewBox="2.73 -38.35 252.38000000000002 38.84" height="60.86983168891468" data-palette-color="url(#7753958c-d786-44cf-9848-609a1ddfc226)"><path d="M14.62 0.49L14.62 0.49Q11.79 0.49 9.47-0.17 7.15-0.83 5.44-1.89 3.74-2.95 2.73-4.17L2.73-4.17 5.35-6.69 5.66-6.69Q7.4-4.98 9.78-4.13 12.16-3.27 14.6-3.27L14.6-3.27Q17.92-3.27 20.15-4.65 22.39-6.03 22.39-9.38L22.39-9.38Q22.39-11.06 21.78-12.08 21.17-13.11 19.68-13.95 18.19-14.79 15.58-15.87L15.58-15.87 10.62-17.92Q8.18-18.95 6.43-19.95 4.69-20.95 3.77-22.45 2.86-23.95 2.86-26.44L2.86-26.44Q2.86-29.27 3.87-31.14 4.88-33.01 6.62-34.08 8.35-35.16 10.56-35.6 12.77-36.04 15.14-36.04L15.14-36.04Q17.5-36.04 19.6-35.49 21.7-34.94 23.44-33.91 25.17-32.89 26.39-31.47L26.39-31.47 23.85-28.93 23.49-28.93Q22.09-30.54 19.86-31.43 17.63-32.32 14.94-32.32L14.94-32.32Q12.96-32.32 11.29-31.84 9.62-31.35 8.62-30.19 7.62-29.03 7.62-26.95L7.62-26.95Q7.62-25.68 8.07-24.82 8.52-23.95 9.63-23.25 10.74-22.56 12.7-21.75L12.7-21.75 17.7-19.73Q20.61-18.55 22.67-17.37 24.73-16.19 25.82-14.36 26.9-12.52 26.9-9.35L26.9-9.35Q26.9-6.57 25.84-4.68 24.78-2.78 23-1.65 21.22-0.51 19.04-0.01 16.87 0.49 14.62 0.49ZM43.09 0.49L43.09 0.49Q38.4 0.49 36-2.1 33.59-4.69 33.59-9.86L33.59-9.86 33.59-26.42 38.03-26.42 38.03-9.96Q38.03-7.69 38.58-6.08 39.13-4.47 40.38-3.61 41.62-2.76 43.7-2.76L43.7-2.76Q45.8-2.76 47.23-3.38 48.65-4 49.57-4.83 50.49-5.66 50.97-6.32L50.97-6.32 50.97-26.42 55.39-26.42 55.39 0 51.56 0 51.32-3.3Q50-1.64 48-0.57 45.99 0.49 43.09 0.49ZM67.89 0L63.45 0 63.45-26.42 67.16-26.42 67.62-21.24Q68.84-24.27 70.97-25.63 73.09-27 75.68-27L75.68-27Q77.7-27 79.27-26.25 80.83-25.49 81.88-24.1 82.93-22.71 83.42-20.78L83.42-20.78Q84.71-23.97 86.99-25.49 89.28-27 92.11-27L92.11-27Q96.19-27 98.36-24.45 100.53-21.9 100.53-17.02L100.53-17.02 100.53 0 96.11 0 96.11-15.72Q96.11-17.65 95.77-19.48 95.43-21.31 94.39-22.5 93.35-23.68 91.25-23.68L91.25-23.68Q89.62-23.68 88-22.62 86.37-21.56 85.3-19.52 84.22-17.48 84.22-14.55L84.22-14.55 84.22 0 79.78 0 79.78-14.89Q79.78-17.94 79.28-19.89 78.78-21.83 77.68-22.75 76.58-23.68 74.8-23.68L74.8-23.68Q72.82-23.68 71.38-22.62 69.94-21.56 69.06-19.73 68.18-17.9 67.89-15.58L67.89-15.58 67.89 0ZM112.74 0L108.29 0 108.29-26.42 112-26.42 112.47-21.24Q113.69-24.27 115.81-25.63 117.94-27 120.52-27L120.52-27Q122.55-27 124.11-26.25 125.68-25.49 126.73-24.1 127.78-22.71 128.26-20.78L128.26-20.78Q129.56-23.97 131.84-25.49 134.12-27 136.96-27L136.96-27Q141.03-27 143.21-24.45 145.38-21.9 145.38-17.02L145.38-17.02 145.38 0 140.96 0 140.96-15.72Q140.96-17.65 140.62-19.48 140.28-21.31 139.24-22.5 138.2-23.68 136.1-23.68L136.1-23.68Q134.47-23.68 132.84-22.62 131.22-21.56 130.14-19.52 129.07-17.48 129.07-14.55L129.07-14.55 129.07 0 124.63 0 124.63-14.89Q124.63-17.94 124.13-19.89 123.63-21.83 122.53-22.75 121.43-23.68 119.65-23.68L119.65-23.68Q117.67-23.68 116.23-22.62 114.79-21.56 113.91-19.73 113.03-17.9 112.74-15.58L112.74-15.58 112.74 0ZM160.41 0.49L160.41 0.49Q156.63 0.49 154.26-1.42 151.89-3.32 151.89-7.18L151.89-7.18Q151.89-8.94 152.52-10.3 153.14-11.67 154.41-12.61 155.68-13.55 157.68-14.04 159.68-14.53 162.42-14.53L162.42-14.53 168.37-14.53 168.37-17.58Q168.37-20.78 166.93-22.2 165.49-23.63 162.59-23.63L162.59-23.63Q160.71-23.63 158.35-23.03 156-22.44 154.12-21.14L154.12-21.14 152.82-24.51Q154.16-25.37 155.79-25.92 157.41-26.46 159.18-26.73 160.95-27 162.71-27L162.71-27Q165.69-27 167.96-26.05 170.23-25.1 171.51-22.95 172.79-20.8 172.79-17.21L172.79-17.21 172.79 0 169.08 0 168.76-3.25Q167.71-2 166.47-1.17 165.22-0.34 163.72 0.07 162.22 0.49 160.41 0.49ZM161.1-2.66L161.1-2.66Q163.44-2.66 165.3-3.64 167.15-4.61 168.37-6.18L168.37-6.18 168.37-11.72 163.22-11.72Q160.54-11.72 158.97-11.21 157.41-10.69 156.76-9.68 156.12-8.67 156.12-7.13L156.12-7.13Q156.12-4.64 157.57-3.65 159.02-2.66 161.1-2.66ZM185.09 0L180.68 0 180.68-26.42 184.26-26.42 184.7-20.92Q186.07-24.19 188.07-25.46 190.08-26.73 192.32-26.73L192.32-26.73Q192.86-26.73 193.32-26.71 193.79-26.68 194.25-26.61L194.25-26.61 193.91-23.1Q193.66-23.1 193.42-23.11 193.18-23.12 192.91-23.12L192.91-23.12Q190.27-23.12 188.54-22.02 186.8-20.92 185.95-19.08 185.09-17.24 185.09-14.99L185.09-14.99 185.09 0ZM204.5 0L200.06 0 200.06-26.42 204.5-26.42 204.5 0ZM202.28-32.47L202.28-32.47Q200.79-32.47 199.99-33.25 199.18-34.03 199.18-35.45L199.18-35.45Q199.18-36.82 199.99-37.59 200.79-38.35 202.28-38.35L202.28-38.35Q203.77-38.35 204.57-37.59 205.38-36.82 205.38-35.45L205.38-35.45Q205.38-34.03 204.57-33.25 203.77-32.47 202.28-32.47ZM230.4 0L210.92 0 210.92-2.83 225.5-23.24 211.53-23.24 211.41-26.42 230.16-26.42 230.16-23.41 215.85-3.32 230.23-3.32 230.4 0ZM255.11 0L235.62 0 235.62-2.83 250.2-23.24 236.23-23.24 236.11-26.42 254.86-26.42 254.86-23.41 240.56-3.32 254.94-3.32 255.11 0Z" opacity="1" transform="matrix(1,0,0,1,0,0)" fill="white" class="wordmark-text-0" id="SvgjsPath2774"></path></svg></g></svg></g></svg></g></svg></g><g transform="matrix(1,0,0,1,409.8899063857922,0)"><svg viewBox="0 0 63.12108995432396 63.09158054556007" height="63.09158054556007" width="63.12108995432396"><g><svg xmlns="http://www.w3.org/2000/svg" xmlns:xlink="http://www.w3.org/1999/xlink" version="1.1" x="0" y="0" viewBox="0.7607695154586737 0.7749999999999999 30.439230484541326 30.425" enable-background="new 0 0 32 32" xml:space="preserve" height="63.09158054556007" width="63.12108995432396" class="icon-icon-0" data-fill-palette-color="accent" id="SvgjsSvg2773"><g fill="black"><g fill="black"><path fill="black" d="M1.5 31.2C1.3 31.2 1.1 31.1 1 31 0.8 30.8 0.7 30.6 0.8 30.3L4.5 11.2C4.6 10.9 4.8 10.6 5.1 10.6L14.7 9.3C14.9 9.3 15.2 9.3 15.3 9.5L22.5 16.7C22.7 16.9 22.7 17.1 22.7 17.3L21.4 26.9C21.4 27.2 21.1 27.5 20.8 27.5L1.6 31.2zM5.8 12.1L2.4 29.6 19.9 26.2 21.1 17.5 14.4 10.8z"></path></g><g fill="black"><rect x="5.2" y="19.8" transform="matrix(-0.7071 -0.7071 0.7071 -0.7071 -8.3465 48.7211)" fill="black" width="1.5" height="12.6"></rect></g><g fill="black"><path fill="black" d="M12 23.1C11.2 23.1 10.4 22.8 9.8 22.2S8.9 20.9 8.9 20C8.9 19.2 9.2 18.4 9.8 17.8 11 16.6 13 16.6 14.1 17.8 15.3 19 15.3 20.9 14.1 22.1 13.6 22.8 12.8 23.1 12 23.1M12 18.4C11.6 18.4 11.2 18.6 10.9 18.9S10.4 19.6 10.4 20 10.6 20.8 10.9 21.1C11.5 21.7 12.5 21.7 13.1 21.1S13.7 19.5 13.1 18.9C12.8 18.6 12.4 18.4 12 18.4"></path></g><g fill="black"><path fill="black" d="M23.8 18.7C22.9 18.7 22 18.3 21.4 17.7L14.3 10.6C13 9.3 13 7.1 14.3 5.8L19.1 1C19.4 0.7 19.9 0.7 20.2 1L31 11.8C31.1 11.9 31.2 12.1 31.2 12.3S31.1 12.7 31 12.8L26.1 17.7C25.5 18.4 24.7 18.7 23.8 18.7M19.7 2.6L15.4 6.9C14.7 7.6 14.7 8.9 15.4 9.6L22.5 16.7C23.2 17.4 24.5 17.4 25.2 16.7L29.5 12.4z"></path></g></g></svg></g></svg></g></svg></g><defs><mask></mask></defs></svg><rect width="395.52" height="52.755606382217984" fill="black" stroke="none" visibility="hidden"></rect></g></mask><linearGradient x1="0" x2="1" y1="0.548" y2="0.55" id="7753958c-d786-44cf-9848-609a1ddfc226"><stop stop-color="#ff6cab" offset="0"></stop><stop stop-color="#7366ff" offset="1"></stop></linearGradient><rect width="395.52" height="52.755606382217984" fill="#000000" mask="url(#c748b69e-8770-401f-aa3f-d7f7b98e37d6)" data-fill-palette-color="primary"></rect><mask id="ff420601-3d4e-4df4-b4f6-7fb8bbc971ae"><g id="SvgjsG2796"><svg viewBox="0 0 395.52 52.755606382217984" height="52.755606382217984" width="395.52"><g><svg viewBox="0 0 473.01099634011615 63.09158054556007" height="52.755606382217984" width="395.52"><g transform="matrix(1,0,0,1,0,1.1108744283226955)"><svg viewBox="0 0 395.52 60.86983168891468" height="60.86983168891468" width="395.52"><g id="SvgjsG2795"><svg viewBox="0 0 395.52 60.86983168891468" height="60.86983168891468" width="395.52" id="SvgjsSvg2794"><g><svg viewBox="0 0 395.52 60.86983168891468" height="60.86983168891468" width="395.52"><g transform="matrix(1,0,0,1,0,0)"><svg width="395.52" viewBox="2.73 -38.35 252.38000000000002 38.84" height="60.86983168891468" data-palette-color="url(#7753958c-d786-44cf-9848-609a1ddfc226)"></svg></g></svg></g></svg></g></svg></g><g transform="matrix(1,0,0,1,409.8899063857922,0)"><svg viewBox="0 0 63.12108995432396 63.09158054556007" height="63.09158054556007" width="63.12108995432396"><g><svg xmlns="http://www.w3.org/2000/svg" xmlns:xlink="http://www.w3.org/1999/xlink" version="1.1" x="0" y="0" viewBox="0.7607695154586737 0.7749999999999999 30.439230484541326 30.425" enable-background="new 0 0 32 32" xml:space="preserve" height="63.09158054556007" width="63.12108995432396" class="icon-icon-0" data-fill-palette-color="accent" id="SvgjsSvg2793"><g fill="white"><g fill="white"><path fill="white" d="M1.5 31.2C1.3 31.2 1.1 31.1 1 31 0.8 30.8 0.7 30.6 0.8 30.3L4.5 11.2C4.6 10.9 4.8 10.6 5.1 10.6L14.7 9.3C14.9 9.3 15.2 9.3 15.3 9.5L22.5 16.7C22.7 16.9 22.7 17.1 22.7 17.3L21.4 26.9C21.4 27.2 21.1 27.5 20.8 27.5L1.6 31.2zM5.8 12.1L2.4 29.6 19.9 26.2 21.1 17.5 14.4 10.8z"></path></g><g fill="white"><rect x="5.2" y="19.8" transform="matrix(-0.7071 -0.7071 0.7071 -0.7071 -8.3465 48.7211)" fill="white" width="1.5" height="12.6"></rect></g><g fill="white"><path fill="white" d="M12 23.1C11.2 23.1 10.4 22.8 9.8 22.2S8.9 20.9 8.9 20C8.9 19.2 9.2 18.4 9.8 17.8 11 16.6 13 16.6 14.1 17.8 15.3 19 15.3 20.9 14.1 22.1 13.6 22.8 12.8 23.1 12 23.1M12 18.4C11.6 18.4 11.2 18.6 10.9 18.9S10.4 19.6 10.4 20 10.6 20.8 10.9 21.1C11.5 21.7 12.5 21.7 13.1 21.1S13.7 19.5 13.1 18.9C12.8 18.6 12.4 18.4 12 18.4"></path></g><g fill="white"><path fill="white" d="M23.8 18.7C22.9 18.7 22 18.3 21.4 17.7L14.3 10.6C13 9.3 13 7.1 14.3 5.8L19.1 1C19.4 0.7 19.9 0.7 20.2 1L31 11.8C31.1 11.9 31.2 12.1 31.2 12.3S31.1 12.7 31 12.8L26.1 17.7C25.5 18.4 24.7 18.7 23.8 18.7M19.7 2.6L15.4 6.9C14.7 7.6 14.7 8.9 15.4 9.6L22.5 16.7C23.2 17.4 24.5 17.4 25.2 16.7L29.5 12.4z"></path></g></g></svg></g></svg></g></svg></g><defs><mask></mask></defs><mask><g id="SvgjsG2792"><svg viewBox="0 0 395.52 52.755606382217984" height="52.755606382217984" width="395.52"><g><svg viewBox="0 0 473.01099634011615 63.09158054556007" height="52.755606382217984" width="395.52"><g transform="matrix(1,0,0,1,0,1.1108744283226955)"><svg viewBox="0 0 395.52 60.86983168891468" height="60.86983168891468" width="395.52"><g id="SvgjsG2791"><svg viewBox="0 0 395.52 60.86983168891468" height="60.86983168891468" width="395.52" id="SvgjsSvg2790"><g><svg viewBox="0 0 395.52 60.86983168891468" height="60.86983168891468" width="395.52"><g transform="matrix(1,0,0,1,0,0)"><svg width="395.52" viewBox="2.73 -38.35 252.38000000000002 38.84" height="60.86983168891468" data-palette-color="url(#7753958c-d786-44cf-9848-609a1ddfc226)"><path d="M14.62 0.49L14.62 0.49Q11.79 0.49 9.47-0.17 7.15-0.83 5.44-1.89 3.74-2.95 2.73-4.17L2.73-4.17 5.35-6.69 5.66-6.69Q7.4-4.98 9.78-4.13 12.16-3.27 14.6-3.27L14.6-3.27Q17.92-3.27 20.15-4.65 22.39-6.03 22.39-9.38L22.39-9.38Q22.39-11.06 21.78-12.08 21.17-13.11 19.68-13.95 18.19-14.79 15.58-15.87L15.58-15.87 10.62-17.92Q8.18-18.95 6.43-19.95 4.69-20.95 3.77-22.45 2.86-23.95 2.86-26.44L2.86-26.44Q2.86-29.27 3.87-31.14 4.88-33.01 6.62-34.08 8.35-35.16 10.56-35.6 12.77-36.04 15.14-36.04L15.14-36.04Q17.5-36.04 19.6-35.49 21.7-34.94 23.44-33.91 25.17-32.89 26.39-31.47L26.39-31.47 23.85-28.93 23.49-28.93Q22.09-30.54 19.86-31.43 17.63-32.32 14.94-32.32L14.94-32.32Q12.96-32.32 11.29-31.84 9.62-31.35 8.62-30.19 7.62-29.03 7.62-26.95L7.62-26.95Q7.62-25.68 8.07-24.82 8.52-23.95 9.63-23.25 10.74-22.56 12.7-21.75L12.7-21.75 17.7-19.73Q20.61-18.55 22.67-17.37 24.73-16.19 25.82-14.36 26.9-12.52 26.9-9.35L26.9-9.35Q26.9-6.57 25.84-4.68 24.78-2.78 23-1.65 21.22-0.51 19.04-0.01 16.87 0.49 14.62 0.49ZM43.09 0.49L43.09 0.49Q38.4 0.49 36-2.1 33.59-4.69 33.59-9.86L33.59-9.86 33.59-26.42 38.03-26.42 38.03-9.96Q38.03-7.69 38.58-6.08 39.13-4.47 40.38-3.61 41.62-2.76 43.7-2.76L43.7-2.76Q45.8-2.76 47.23-3.38 48.65-4 49.57-4.83 50.49-5.66 50.97-6.32L50.97-6.32 50.97-26.42 55.39-26.42 55.39 0 51.56 0 51.32-3.3Q50-1.64 48-0.57 45.99 0.49 43.09 0.49ZM67.89 0L63.45 0 63.45-26.42 67.16-26.42 67.62-21.24Q68.84-24.27 70.97-25.63 73.09-27 75.68-27L75.68-27Q77.7-27 79.27-26.25 80.83-25.49 81.88-24.1 82.93-22.71 83.42-20.78L83.42-20.78Q84.71-23.97 86.99-25.49 89.28-27 92.11-27L92.11-27Q96.19-27 98.36-24.45 100.53-21.9 100.53-17.02L100.53-17.02 100.53 0 96.11 0 96.11-15.72Q96.11-17.65 95.77-19.48 95.43-21.31 94.39-22.5 93.35-23.68 91.25-23.68L91.25-23.68Q89.62-23.68 88-22.62 86.37-21.56 85.3-19.52 84.22-17.48 84.22-14.55L84.22-14.55 84.22 0 79.78 0 79.78-14.89Q79.78-17.94 79.28-19.89 78.78-21.83 77.68-22.75 76.58-23.68 74.8-23.68L74.8-23.68Q72.82-23.68 71.38-22.62 69.94-21.56 69.06-19.73 68.18-17.9 67.89-15.58L67.89-15.58 67.89 0ZM112.74 0L108.29 0 108.29-26.42 112-26.42 112.47-21.24Q113.69-24.27 115.81-25.63 117.94-27 120.52-27L120.52-27Q122.55-27 124.11-26.25 125.68-25.49 126.73-24.1 127.78-22.71 128.26-20.78L128.26-20.78Q129.56-23.97 131.84-25.49 134.12-27 136.96-27L136.96-27Q141.03-27 143.21-24.45 145.38-21.9 145.38-17.02L145.38-17.02 145.38 0 140.96 0 140.96-15.72Q140.96-17.65 140.62-19.48 140.28-21.31 139.24-22.5 138.2-23.68 136.1-23.68L136.1-23.68Q134.47-23.68 132.84-22.62 131.22-21.56 130.14-19.52 129.07-17.48 129.07-14.55L129.07-14.55 129.07 0 124.63 0 124.63-14.89Q124.63-17.94 124.13-19.89 123.63-21.83 122.53-22.75 121.43-23.68 119.65-23.68L119.65-23.68Q117.67-23.68 116.23-22.62 114.79-21.56 113.91-19.73 113.03-17.9 112.74-15.58L112.74-15.58 112.74 0ZM160.41 0.49L160.41 0.49Q156.63 0.49 154.26-1.42 151.89-3.32 151.89-7.18L151.89-7.18Q151.89-8.94 152.52-10.3 153.14-11.67 154.41-12.61 155.68-13.55 157.68-14.04 159.68-14.53 162.42-14.53L162.42-14.53 168.37-14.53 168.37-17.58Q168.37-20.78 166.93-22.2 165.49-23.63 162.59-23.63L162.59-23.63Q160.71-23.63 158.35-23.03 156-22.44 154.12-21.14L154.12-21.14 152.82-24.51Q154.16-25.37 155.79-25.92 157.41-26.46 159.18-26.73 160.95-27 162.71-27L162.71-27Q165.69-27 167.96-26.05 170.23-25.1 171.51-22.95 172.79-20.8 172.79-17.21L172.79-17.21 172.79 0 169.08 0 168.76-3.25Q167.71-2 166.47-1.17 165.22-0.34 163.72 0.07 162.22 0.49 160.41 0.49ZM161.1-2.66L161.1-2.66Q163.44-2.66 165.3-3.64 167.15-4.61 168.37-6.18L168.37-6.18 168.37-11.72 163.22-11.72Q160.54-11.72 158.97-11.21 157.41-10.69 156.76-9.68 156.12-8.67 156.12-7.13L156.12-7.13Q156.12-4.64 157.57-3.65 159.02-2.66 161.1-2.66ZM185.09 0L180.68 0 180.68-26.42 184.26-26.42 184.7-20.92Q186.07-24.19 188.07-25.46 190.08-26.73 192.32-26.73L192.32-26.73Q192.86-26.73 193.32-26.71 193.79-26.68 194.25-26.61L194.25-26.61 193.91-23.1Q193.66-23.1 193.42-23.11 193.18-23.12 192.91-23.12L192.91-23.12Q190.27-23.12 188.54-22.02 186.8-20.92 185.95-19.08 185.09-17.24 185.09-14.99L185.09-14.99 185.09 0ZM204.5 0L200.06 0 200.06-26.42 204.5-26.42 204.5 0ZM202.28-32.47L202.28-32.47Q200.79-32.47 199.99-33.25 199.18-34.03 199.18-35.45L199.18-35.45Q199.18-36.82 199.99-37.59 200.79-38.35 202.28-38.35L202.28-38.35Q203.77-38.35 204.57-37.59 205.38-36.82 205.38-35.45L205.38-35.45Q205.38-34.03 204.57-33.25 203.77-32.47 202.28-32.47ZM230.4 0L210.92 0 210.92-2.83 225.5-23.24 211.53-23.24 211.41-26.42 230.16-26.42 230.16-23.41 215.85-3.32 230.23-3.32 230.4 0ZM255.11 0L235.62 0 235.62-2.83 250.2-23.24 236.23-23.24 236.11-26.42 254.86-26.42 254.86-23.41 240.56-3.32 254.94-3.32 255.11 0Z" opacity="1" transform="matrix(1,0,0,1,0,0)" fill="black" class="wordmark-text-0" id="SvgjsPath2789"></path></svg></g></svg></g></svg></g></svg></g><g transform="matrix(1,0,0,1,409.8899063857922,0)"><svg viewBox="0 0 63.12108995432396 63.09158054556007" height="63.09158054556007" width="63.12108995432396"><g><svg xmlns="http://www.w3.org/2000/svg" xmlns:xlink="http://www.w3.org/1999/xlink" version="1.1" x="0" y="0" viewBox="0.7607695154586737 0.7749999999999999 30.439230484541326 30.425" enable-background="new 0 0 32 32" xml:space="preserve" height="63.09158054556007" width="63.12108995432396" class="icon-icon-0" data-fill-palette-color="accent" id="SvgjsSvg2788"><g fill="black"><g fill="black"><path fill="black" d="M1.5 31.2C1.3 31.2 1.1 31.1 1 31 0.8 30.8 0.7 30.6 0.8 30.3L4.5 11.2C4.6 10.9 4.8 10.6 5.1 10.6L14.7 9.3C14.9 9.3 15.2 9.3 15.3 9.5L22.5 16.7C22.7 16.9 22.7 17.1 22.7 17.3L21.4 26.9C21.4 27.2 21.1 27.5 20.8 27.5L1.6 31.2zM5.8 12.1L2.4 29.6 19.9 26.2 21.1 17.5 14.4 10.8z"></path></g><g fill="black"><rect x="5.2" y="19.8" transform="matrix(-0.7071 -0.7071 0.7071 -0.7071 -8.3465 48.7211)" fill="black" width="1.5" height="12.6"></rect></g><g fill="black"><path fill="black" d="M12 23.1C11.2 23.1 10.4 22.8 9.8 22.2S8.9 20.9 8.9 20C8.9 19.2 9.2 18.4 9.8 17.8 11 16.6 13 16.6 14.1 17.8 15.3 19 15.3 20.9 14.1 22.1 13.6 22.8 12.8 23.1 12 23.1M12 18.4C11.6 18.4 11.2 18.6 10.9 18.9S10.4 19.6 10.4 20 10.6 20.8 10.9 21.1C11.5 21.7 12.5 21.7 13.1 21.1S13.7 19.5 13.1 18.9C12.8 18.6 12.4 18.4 12 18.4"></path></g><g fill="black"><path fill="black" d="M23.8 18.7C22.9 18.7 22 18.3 21.4 17.7L14.3 10.6C13 9.3 13 7.1 14.3 5.8L19.1 1C19.4 0.7 19.9 0.7 20.2 1L31 11.8C31.1 11.9 31.2 12.1 31.2 12.3S31.1 12.7 31 12.8L26.1 17.7C25.5 18.4 24.7 18.7 23.8 18.7M19.7 2.6L15.4 6.9C14.7 7.6 14.7 8.9 15.4 9.6L22.5 16.7C23.2 17.4 24.5 17.4 25.2 16.7L29.5 12.4z"></path></g></g></svg></g></svg></g></svg></g><defs><mask></mask></defs></svg><rect width="395.52" height="52.755606382217984" fill="black" stroke="none" visibility="hidden"></rect></g></mask></svg><rect width="395.52" height="52.755606382217984" fill="black" stroke="none" visibility="hidden"></rect></g></mask><linearGradient x1="0" x2="1" y1="0.548" y2="0.55" id="a0dd3716-519f-458b-9821-32158b1aa639"><stop stop-color="#ff6cab" offset="0"></stop><stop stop-color="#7366ff" offset="1"></stop></linearGradient><rect width="395.52" height="52.755606382217984" fill="#000000" mask="url(#ff420601-3d4e-4df4-b4f6-7fb8bbc971ae)" data-fill-palette-color="accent"></rect></svg><rect width="395.52" height="52.755606382217984" fill="none" stroke="none" visibility="hidden"></rect></g></svg></g></svg>