<svg xmlns="http://www.w3.org/2000/svg" version="1.1" xmlns:xlink="http://www.w3.org/1999/xlink" xmlns:svgjs="http://svgjs.dev/svgjs" width="1500" height="1500" viewBox="0 0 1500 1500"><rect width="1500" height="1500" fill="#000000"></rect><g transform="matrix(0.6666666666666666,0,0,0.6666666666666666,249.39468998640734,609.9841383305162)"><svg viewBox="0 0 396 111" data-background-color="#000000" preserveAspectRatio="xMidYMid meet" height="420" width="1500" xmlns="http://www.w3.org/2000/svg" xmlns:xlink="http://www.w3.org/1999/xlink"><g id="tight-bounds" transform="matrix(1,0,0,1,0.2399599999999964,0.006464624940178965)"><svg viewBox="0 0 395.52 110.9869614889576" height="110.9869614889576" width="395.52"><rect width="395.52033723461733" height="110.9872473560859" fill="url(#6b6a971b-741e-4929-9cd5-fd2300fdb99a)" mask="url(#01cd47d6-1492-4acb-83e9-994ccc5544f6)" data-fill-palette-color="tertiary"></rect><g><svg viewBox="0 0 395.52 110.9869614889576" height="110.9869614889576" width="395.52"><g><svg viewBox="0 0 395.52 110.9869614889576" height="110.9869614889576" width="395.52"><g id="textblocktransform"><svg viewBox="0 0 395.52 110.9869614889576" height="110.9869614889576" width="395.52" id="textblock"><g><svg viewBox="0 0 395.52 110.9869614889576" height="110.9869614889576" width="395.52"><path d="M394.594 23.805C392.735 12.284 387.435 9.081 387.435 9.081 371.165-2.785 350.86-0.227 332.619 1.478 300.414 1.547 268.339 4.082 236.208 5.441 168.767 5.648 100.749 2.238 33.643 10.648 27.339 13.229-6.54 11.155 1.121 25.279 3.129 31.155 10.456 37.675 10.232 43.067 11.236 44.011 12.631 41.846 13.226 43.205 15.309 46.868 18.711 45.14 21.501 47.306 17.614 53.089 20.403 57.905 23.062 62.951 18.377 64.264 12.371 63.642 9.675 67.997 9.396 71.153 7.89 70.554 6.235 70.416 5.026 70.324 2.59 70.67 2.999 71.66 4.394 75.047-1.594 77.006 2.162 80.324-0.422 83.918 3.948 87.029 3.353 90.922 3.278 91.706 3.687 92.374 4.338 92.558 7.22 93.549 3.018 95.485 3.464 97.581 33.029 111.913 65.104 102.005 95.394 108.595 103.259 103.987 97.346 110.231 100.489 109.263 102.943 108.134 104.728 112.811 107.499 110.162 107.927 109.401 107.276 107.604 108.8 107.95 109.6 108.134 110.307 108.088 110.418 107.028 110.586 105.438 109.117 106.429 108.726 105.599 112.947 101.406 111.906 111.383 115.866 110.968 115.68 109.747 114.528 107.996 116.889 108.226 119.232 106.475 119.306 105.023 121.389 108.963 121.463 109.816 121.835 110.415 122.43 110.83 128.938 106.544 135.409 112.35 142.233 110.415 146.417 108.295 150.433 111.567 154.672 110.761 156.16 110.115 157.666 108.963 159.098 110.899 176.632 111.314 195.319 109.586 211.943 110.968 256.364 108.387 303.836 112.028 350.674 108.618 361.719 107.304 373.192 105.438 383.958 103.941 383.958 103.941 392.679 99.839 392.679 81.407S394.538 65.278 394.817 50.601C395.096 35.924 396.398 35.325 394.538 23.805Z" opacity="1" fill="url(#6b6a971b-741e-4929-9cd5-fd2300fdb99a)" data-fill-palette-color="tertiary"></path><g transform="matrix(1,0,0,1,55.76832,26.230666666666668)"><svg width="283.98335999999995" viewBox="2.6 -37.6 307.13 63.3" height="58.525628155624275" data-palette-color="#000000"><path d="M14.55 0.65L14.55 0.65Q9.7 0.6 6.65-1.53 3.6-3.65 2.6-7.2L2.6-7.2Q3.15-8.15 4.38-8.72 5.6-9.3 6.7-9.2L6.7-9.2Q7.6-6.5 9.7-5.1 11.8-3.7 14.8-3.75L14.8-3.75Q18-3.8 19.95-5.43 21.9-7.05 21.9-9.85L21.9-9.85Q21.9-14.1 17.45-15.35L17.45-15.35 10.8-17.2Q7.3-18.2 5.3-20.63 3.3-23.05 3.3-26.4L3.3-26.4Q3.3-29.4 4.83-31.75 6.35-34.1 9.03-35.43 11.7-36.75 15.15-36.75L15.15-36.75Q19-36.75 22.08-35.13 25.15-33.5 26.4-30.85L26.4-30.85Q25.95-30.05 24.93-29.28 23.9-28.5 22.7-28.1L22.7-28.1Q20.25-32.35 15-32.35L15-32.35Q11.9-32.35 9.95-30.78 8-29.2 8-26.7L8-26.7Q8-22.7 13.15-21.25L13.15-21.25 19.05-19.65Q22.6-18.7 24.6-16.13 26.6-13.55 26.6-9.9L26.6-9.9Q26.6-6.7 25.03-4.3 23.45-1.9 20.73-0.63 18 0.65 14.55 0.65ZM29.15-3.6L29.15-3.6Q30.2-3.6 31.4-4.25 32.6-4.9 33.65-6.25L33.65-6.25Q35.1-8.25 35.67-10.95 36.25-13.65 36.25-16.2L36.25-16.2 36.25-23.6Q36.7-23.75 37.3-23.85 37.9-23.95 38.55-23.95L38.55-23.95Q39.7-23.95 40.8-23.6L40.8-23.6 40.8-12.05Q40.8-7.7 42.2-5.73 43.6-3.75 46.6-3.75L46.6-3.75Q53.75-3.75 53.75-14.2L53.75-14.2 53.75-23.6Q54.15-23.75 54.75-23.85 55.35-23.95 56-23.95L56-23.95Q57.2-23.95 58.3-23.6L58.3-23.6 58.3-9.2Q58.3-6.55 59.12-5.08 59.95-3.6 61.9-3.6L61.9-3.6Q62.75-3.6 63.05-2.9 63.35-2.2 63.35-1.4L63.35-1.4Q63.35-0.6 62.92 0.05 62.5 0.7 61.55 0.7L61.55 0.7Q56.75 0.7 55.05-3.5L55.05-3.5Q53.65-1.45 51.45-0.38 49.25 0.7 46.25 0.7L46.25 0.7Q39.9 0.7 37.55-4.7L37.55-4.7Q36.75-3.25 35.75-2.25L35.75-2.25Q34.4-0.9 32.62-0.1 30.85 0.7 28.8 0.7L28.8 0.7Q28.1 0.7 27.72 0.03 27.35-0.65 27.35-1.45L27.35-1.45Q27.35-2.3 27.77-2.95 28.2-3.6 29.15-3.6ZM61.55 0.7L61.55 0.7Q60.9 0.7 60.5 0.1 60.1-0.5 60.1-1.45L60.1-1.45Q60.1-3.6 61.9-3.6L61.9-3.6Q63.5-3.6 64.77-5.23 66.05-6.85 67-10.65L67-10.65 68.5-16.5Q70.6-24.3 76.5-24.3L76.5-24.3Q78.65-24.3 80.17-23.08 81.7-21.85 82.35-19.7L82.35-19.7Q83.5-21.9 85.37-23.1 87.25-24.3 89.6-24.3L89.6-24.3Q94.5-24.3 96.25-19.25L96.25-19.25Q97.45-21.65 99.5-22.98 101.55-24.3 104.15-24.3L104.15-24.3Q107.7-24.3 109.6-22.05 111.5-19.8 111.5-15.7L111.5-15.7 111.5-8.75Q111.5-6 112.22-4.8 112.95-3.6 114.55-3.6L114.55-3.6Q115.25-3.6 115.62-3 116-2.4 116-1.4L116-1.4Q116-0.6 115.57 0.05 115.15 0.7 114.2 0.7L114.2 0.7Q106.95 0.7 106.95-8.2L106.95-8.2 106.95-14.6Q106.95-17.2 106-18.6 105.05-20 103.3-20L103.3-20Q100.65-20 99.12-16.98 97.59-13.95 97.59-8.6L97.59-8.6 97.59 0Q97.09 0.15 96.5 0.25 95.9 0.35 95.34 0.35L95.34 0.35Q94.15 0.35 93.05 0L93.05 0 93.05-13.9Q93.05-16.85 92.02-18.43 91-20 89-20L89-20Q87.15-20 85.8-18.57 84.45-17.15 83.67-14.58 82.9-12 82.9-8.6L82.9-8.6 82.9 0Q82.4 0.15 81.8 0.25 81.2 0.35 80.65 0.35L80.65 0.35Q79.4 0.35 78.4 0L78.4 0 78.4-15.95Q78.4-20 76.1-20L76.1-20Q75.05-20 74.3-19.05 73.55-18.1 73-16L73-16 71.15-8.8Q69.85-3.85 67.55-1.58 65.25 0.7 61.55 0.7ZM114.19 0.7L114.19 0.7Q113.54 0.7 113.14 0.1 112.74-0.5 112.74-1.45L112.74-1.45Q112.74-3.6 114.54-3.6L114.54-3.6Q116.14-3.6 117.42-5.23 118.69-6.85 119.64-10.65L119.64-10.65 121.14-16.5Q123.24-24.3 129.14-24.3L129.14-24.3Q131.29-24.3 132.82-23.08 134.34-21.85 134.99-19.7L134.99-19.7Q136.14-21.9 138.02-23.1 139.89-24.3 142.24-24.3L142.24-24.3Q147.14-24.3 148.89-19.25L148.89-19.25Q150.09-21.65 152.14-22.98 154.19-24.3 156.79-24.3L156.79-24.3Q160.34-24.3 162.24-22.05 164.14-19.8 164.14-15.7L164.14-15.7 164.14-8.75Q164.14-6 164.87-4.8 165.59-3.6 167.19-3.6L167.19-3.6Q167.89-3.6 168.27-3 168.64-2.4 168.64-1.4L168.64-1.4Q168.64-0.6 168.22 0.05 167.79 0.7 166.84 0.7L166.84 0.7Q159.59 0.7 159.59-8.2L159.59-8.2 159.59-14.6Q159.59-17.2 158.64-18.6 157.69-20 155.94-20L155.94-20Q153.29-20 151.77-16.98 150.24-13.95 150.24-8.6L150.24-8.6 150.24 0Q149.74 0.15 149.14 0.25 148.54 0.35 147.99 0.35L147.99 0.35Q146.79 0.35 145.69 0L145.69 0 145.69-13.9Q145.69-16.85 144.67-18.43 143.64-20 141.64-20L141.64-20Q139.79-20 138.44-18.57 137.09-17.15 136.32-14.58 135.54-12 135.54-8.6L135.54-8.6 135.54 0Q135.04 0.15 134.44 0.25 133.84 0.35 133.29 0.35L133.29 0.35Q132.04 0.35 131.04 0L131.04 0 131.04-15.95Q131.04-20 128.74-20L128.74-20Q127.69-20 126.94-19.05 126.19-18.1 125.64-16L125.64-16 123.79-8.8Q122.49-3.85 120.19-1.58 117.89 0.7 114.19 0.7ZM167.19-3.6L167.19-3.6Q168.89-3.6 170.52-5.28 172.14-6.95 173.24-9.8L173.24-9.8Q173.19-10.5 173.19-11.2L173.19-11.2Q173.19-15 174.69-17.95 176.19-20.9 178.77-22.6 181.34-24.3 184.64-24.3L184.64-24.3Q186.39-24.3 188.09-23.63 189.79-22.95 190.94-21.8L190.94-21.8 190.94-23.85Q191.39-24 191.99-24.1 192.59-24.2 193.24-24.2L193.24-24.2Q194.44-24.2 195.49-23.85L195.49-23.85 195.49-9.2Q195.49-6.55 196.31-5.08 197.14-3.6 199.09-3.6L199.09-3.6Q199.94-3.6 200.24-2.9 200.54-2.2 200.54-1.4L200.54-1.4Q200.54-0.6 200.12 0.05 199.69 0.7 198.74 0.7L198.74 0.7Q193.84 0.7 192.19-3.7L192.19-3.7Q190.74-1.65 188.56-0.48 186.39 0.7 183.74 0.7L183.74 0.7Q180.84 0.7 178.62-0.58 176.39-1.85 174.99-4.1L174.99-4.1Q171.89 0.7 166.84 0.7L166.84 0.7Q166.19 0.7 165.79 0.1 165.39-0.5 165.39-1.45L165.39-1.45Q165.39-3.6 167.19-3.6ZM177.84-11.2L177.84-11.2Q177.84-7.65 179.47-5.63 181.09-3.6 183.94-3.6L183.94-3.6Q187.09-3.6 189.02-5.75 190.94-7.9 190.94-11.4L190.94-11.4 190.94-17Q189.94-18.35 188.39-19.18 186.84-20 185.19-20L185.19-20Q183.04-20 181.39-18.85 179.74-17.7 178.79-15.73 177.84-13.75 177.84-11.2ZM198.74 0.7L198.74 0.7Q198.09 0.7 197.69 0.1 197.29-0.5 197.29-1.45L197.29-1.45Q197.29-3.6 199.09-3.6L199.09-3.6Q201.29-3.6 203.01-5.43 204.74-7.25 205.76-10.4 206.79-13.55 206.79-17.4L206.79-17.4Q206.79-18.3 206.69-19.05 206.59-19.8 206.44-20.3L206.44-20.3Q205.99-20.75 205.46-21.75 204.94-22.75 204.56-23.88 204.19-25 204.19-25.7L204.19-25.7Q204.79-26.65 206.11-27.18 207.44-27.7 209.04-27.45L209.04-27.45Q209.99-25.7 210.59-23.05L210.59-23.05Q212.09-23.1 214.64-23.7L214.64-23.7Q216.24-24.05 217.21-24.18 218.19-24.3 218.89-24.3L218.89-24.3Q221.59-24.3 223.14-22.28 224.69-20.25 224.69-16.8L224.69-16.8 224.69-8.75Q224.69-6 225.41-4.8 226.14-3.6 227.74-3.6L227.74-3.6Q228.44-3.6 228.81-3 229.19-2.4 229.19-1.4L229.19-1.4Q229.19-0.6 228.76 0.05 228.34 0.7 227.39 0.7L227.39 0.7Q220.14 0.7 220.14-8.2L220.14-8.2 220.14-15.95Q220.14-18.2 219.64-19.1 219.14-20 217.84-20L217.84-20Q217.39-20 216.84-19.9 216.29-19.8 214.89-19.5L214.89-19.5Q212.44-19 211.19-18.9L211.19-18.9Q211.24-18.1 211.24-17.3L211.24-17.3Q211.24-11.9 209.69-7.85 208.14-3.8 205.31-1.55 202.49 0.7 198.74 0.7ZM227.74-3.6L227.74-3.6Q228.79-3.6 229.99-4.25 231.19-4.9 232.24-6.25L232.24-6.25Q233.49-7.95 234.06-10.15 234.64-12.35 234.79-14.6L234.79-14.6 234.79-23.6Q235.24-23.75 235.84-23.85 236.44-23.95 237.09-23.95L237.09-23.95Q238.24-23.95 239.34-23.6L239.34-23.6 239.34-9.2Q239.34-6.55 240.16-5.08 240.99-3.6 242.94-3.6L242.94-3.6Q243.79-3.6 244.09-2.9 244.39-2.2 244.39-1.4L244.39-1.4Q244.39-0.6 243.96 0.05 243.54 0.7 242.59 0.7L242.59 0.7Q237.39 0.7 235.84-4.2L235.84-4.2Q235.14-3.05 234.34-2.25L234.34-2.25Q232.99-0.9 231.21-0.1 229.44 0.7 227.39 0.7L227.39 0.7Q226.69 0.7 226.31 0.03 225.94-0.65 225.94-1.45L225.94-1.45Q225.94-2.3 226.36-2.95 226.79-3.6 227.74-3.6ZM237.14-30.8L237.14-30.8Q235.74-30.8 234.74-31.8 233.74-32.8 233.74-34.2L233.74-34.2Q233.74-35.7 234.71-36.65 235.69-37.6 237.14-37.6L237.14-37.6Q238.64-37.6 239.59-36.65 240.54-35.7 240.54-34.2L240.54-34.2Q240.54-32.75 239.56-31.78 238.59-30.8 237.14-30.8ZM242.58 0.7L242.58 0.7Q241.93 0.7 241.53 0.1 241.13-0.5 241.13-1.45L241.13-1.45Q241.13-3.6 242.93-3.6L242.93-3.6Q245.13-3.6 246.86-5.43 248.58-7.25 249.61-10.4 250.63-13.55 250.63-17.4L250.63-17.4Q250.63-18.3 250.53-19.05 250.43-19.8 250.28-20.3L250.28-20.3Q249.83-20.75 249.31-21.75 248.78-22.75 248.41-23.88 248.03-25 248.03-25.7L248.03-25.7Q248.63-26.65 249.96-27.18 251.28-27.7 252.88-27.45L252.88-27.45Q253.68-26 254.23-23.95L254.23-23.95Q257.43-23.15 261.58-23.15L261.58-23.15Q263.73-23.15 265.93-23.35 268.13-23.55 269.48-23.9L269.48-23.9Q270.58-23.55 271.26-22.65 271.93-21.75 272.13-20.5L272.13-20.5 263.98-8.1Q264.93-8.35 265.83-8.35L265.83-8.35Q268.68-8.35 270.73-6.05 272.78-3.75 273.88 0.48 274.98 4.7 274.98 10.6L274.98 10.6Q274.98 18.35 272.76 22.03 270.53 25.7 265.68 25.7L265.68 25.7Q262.23 25.7 260.03 23.38 257.83 21.05 257.83 17.35L257.83 17.35Q257.83 12.75 260.73 8.03 263.63 3.3 268.98-1L268.98-1Q267.68-4.3 265.03-4.3L265.03-4.3Q263.73-4.3 262.53-3.48 261.33-2.65 259.88-0.7L259.88-0.7 258.98 0.55Q257.83 0.3 256.83-0.4 255.83-1.1 255.43-2.05L255.43-2.05 266.48-19.2Q265.28-19.1 263.88-19.03 262.48-18.95 261.68-18.95L261.68-18.95Q257.73-18.95 254.98-19.5L254.98-19.5Q255.08-18.4 255.08-17.3L255.08-17.3Q255.08-11.9 253.53-7.85 251.98-3.8 249.16-1.55 246.33 0.7 242.58 0.7ZM262.23 16.85L262.23 16.85Q262.23 19 263.21 20.25 264.18 21.5 265.88 21.5L265.88 21.5Q268.33 21.5 269.36 18.98 270.38 16.45 270.38 10.55L270.38 10.55Q270.38 6.45 270.03 3.55L270.03 3.55Q262.23 10.25 262.23 16.85ZM277.33 0.7L277.33 0.7Q276.68 0.7 276.28 0.1 275.88-0.5 275.88-1.45L275.88-1.45Q275.88-3.6 277.68-3.6L277.68-3.6Q279.88-3.6 281.61-5.43 283.33-7.25 284.36-10.4 285.38-13.55 285.38-17.4L285.38-17.4Q285.38-18.3 285.28-19.05 285.18-19.8 285.03-20.3L285.03-20.3Q284.58-20.75 284.06-21.75 283.53-22.75 283.16-23.88 282.78-25 282.78-25.7L282.78-25.7Q283.38-26.65 284.71-27.18 286.03-27.7 287.63-27.45L287.63-27.45Q288.43-26 288.98-23.95L288.98-23.95Q292.18-23.15 296.33-23.15L296.33-23.15Q298.48-23.15 300.68-23.35 302.88-23.55 304.23-23.9L304.23-23.9Q305.33-23.55 306-22.65 306.68-21.75 306.88-20.5L306.88-20.5 298.73-8.1Q299.68-8.35 300.58-8.35L300.58-8.35Q303.43-8.35 305.48-6.05 307.53-3.75 308.63 0.48 309.73 4.7 309.73 10.6L309.73 10.6Q309.73 18.35 307.5 22.03 305.28 25.7 300.43 25.7L300.43 25.7Q296.98 25.7 294.78 23.38 292.58 21.05 292.58 17.35L292.58 17.35Q292.58 12.75 295.48 8.03 298.38 3.3 303.73-1L303.73-1Q302.43-4.3 299.78-4.3L299.78-4.3Q298.48-4.3 297.28-3.48 296.08-2.65 294.63-0.7L294.63-0.7 293.73 0.55Q292.58 0.3 291.58-0.4 290.58-1.1 290.18-2.05L290.18-2.05 301.23-19.2Q300.03-19.1 298.63-19.03 297.23-18.95 296.43-18.95L296.43-18.95Q292.48-18.95 289.73-19.5L289.73-19.5Q289.83-18.4 289.83-17.3L289.83-17.3Q289.83-11.9 288.28-7.85 286.73-3.8 283.91-1.55 281.08 0.7 277.33 0.7ZM296.98 16.85L296.98 16.85Q296.98 19 297.96 20.25 298.93 21.5 300.63 21.5L300.63 21.5Q303.08 21.5 304.11 18.98 305.13 16.45 305.13 10.55L305.13 10.55Q305.13 6.45 304.78 3.55L304.78 3.55Q296.98 10.25 296.98 16.85Z" opacity="1" transform="matrix(1,0,0,1,0,0)" fill="#000000" class="wordmark-text-0" data-fill-palette-color="quaternary" id="text-0"></path></svg></g></svg></g></svg></g></svg></g><g></g></svg></g><defs></defs><mask id="01cd47d6-1492-4acb-83e9-994ccc5544f6"><g id="SvgjsG3546"><svg viewBox="0 0 395.52 110.9869614889576" height="110.9869614889576" width="395.52"><g><svg viewBox="0 0 395.52 110.9869614889576" height="110.9869614889576" width="395.52"><g><svg viewBox="0 0 395.52 110.9869614889576" height="110.9869614889576" width="395.52"><g id="SvgjsG3545"><svg viewBox="0 0 395.52 110.9869614889576" height="110.9869614889576" width="395.52" id="SvgjsSvg3544"><g><svg viewBox="0 0 395.52 110.9869614889576" height="110.9869614889576" width="395.52"><path d="M394.594 23.805C392.735 12.284 387.435 9.081 387.435 9.081 371.165-2.785 350.86-0.227 332.619 1.478 300.414 1.547 268.339 4.082 236.208 5.441 168.767 5.648 100.749 2.238 33.643 10.648 27.339 13.229-6.54 11.155 1.121 25.279 3.129 31.155 10.456 37.675 10.232 43.067 11.236 44.011 12.631 41.846 13.226 43.205 15.309 46.868 18.711 45.14 21.501 47.306 17.614 53.089 20.403 57.905 23.062 62.951 18.377 64.264 12.371 63.642 9.675 67.997 9.396 71.153 7.89 70.554 6.235 70.416 5.026 70.324 2.59 70.67 2.999 71.66 4.394 75.047-1.594 77.006 2.162 80.324-0.422 83.918 3.948 87.029 3.353 90.922 3.278 91.706 3.687 92.374 4.338 92.558 7.22 93.549 3.018 95.485 3.464 97.581 33.029 111.913 65.104 102.005 95.394 108.595 103.259 103.987 97.346 110.231 100.489 109.263 102.943 108.134 104.728 112.811 107.499 110.162 107.927 109.401 107.276 107.604 108.8 107.95 109.6 108.134 110.307 108.088 110.418 107.028 110.586 105.438 109.117 106.429 108.726 105.599 112.947 101.406 111.906 111.383 115.866 110.968 115.68 109.747 114.528 107.996 116.889 108.226 119.232 106.475 119.306 105.023 121.389 108.963 121.463 109.816 121.835 110.415 122.43 110.83 128.938 106.544 135.409 112.35 142.233 110.415 146.417 108.295 150.433 111.567 154.672 110.761 156.16 110.115 157.666 108.963 159.098 110.899 176.632 111.314 195.319 109.586 211.943 110.968 256.364 108.387 303.836 112.028 350.674 108.618 361.719 107.304 373.192 105.438 383.958 103.941 383.958 103.941 392.679 99.839 392.679 81.407S394.538 65.278 394.817 50.601C395.096 35.924 396.398 35.325 394.538 23.805Z" opacity="1" fill="white"></path><g transform="matrix(1,0,0,1,55.76832,26.230666666666668)"><svg width="283.98335999999995" viewBox="2.6 -37.6 307.13 63.3" height="58.525628155624275" data-palette-color="#000000"><path d="M14.55 0.65L14.55 0.65Q9.7 0.6 6.65-1.53 3.6-3.65 2.6-7.2L2.6-7.2Q3.15-8.15 4.38-8.72 5.6-9.3 6.7-9.2L6.7-9.2Q7.6-6.5 9.7-5.1 11.8-3.7 14.8-3.75L14.8-3.75Q18-3.8 19.95-5.43 21.9-7.05 21.9-9.85L21.9-9.85Q21.9-14.1 17.45-15.35L17.45-15.35 10.8-17.2Q7.3-18.2 5.3-20.63 3.3-23.05 3.3-26.4L3.3-26.4Q3.3-29.4 4.83-31.75 6.35-34.1 9.03-35.43 11.7-36.75 15.15-36.75L15.15-36.75Q19-36.75 22.08-35.13 25.15-33.5 26.4-30.85L26.4-30.85Q25.95-30.05 24.93-29.28 23.9-28.5 22.7-28.1L22.7-28.1Q20.25-32.35 15-32.35L15-32.35Q11.9-32.35 9.95-30.78 8-29.2 8-26.7L8-26.7Q8-22.7 13.15-21.25L13.15-21.25 19.05-19.65Q22.6-18.7 24.6-16.13 26.6-13.55 26.6-9.9L26.6-9.9Q26.6-6.7 25.03-4.3 23.45-1.9 20.73-0.63 18 0.65 14.55 0.65ZM29.15-3.6L29.15-3.6Q30.2-3.6 31.4-4.25 32.6-4.9 33.65-6.25L33.65-6.25Q35.1-8.25 35.67-10.95 36.25-13.65 36.25-16.2L36.25-16.2 36.25-23.6Q36.7-23.75 37.3-23.85 37.9-23.95 38.55-23.95L38.55-23.95Q39.7-23.95 40.8-23.6L40.8-23.6 40.8-12.05Q40.8-7.7 42.2-5.73 43.6-3.75 46.6-3.75L46.6-3.75Q53.75-3.75 53.75-14.2L53.75-14.2 53.75-23.6Q54.15-23.75 54.75-23.85 55.35-23.95 56-23.95L56-23.95Q57.2-23.95 58.3-23.6L58.3-23.6 58.3-9.2Q58.3-6.55 59.12-5.08 59.95-3.6 61.9-3.6L61.9-3.6Q62.75-3.6 63.05-2.9 63.35-2.2 63.35-1.4L63.35-1.4Q63.35-0.6 62.92 0.05 62.5 0.7 61.55 0.7L61.55 0.7Q56.75 0.7 55.05-3.5L55.05-3.5Q53.65-1.45 51.45-0.38 49.25 0.7 46.25 0.7L46.25 0.7Q39.9 0.7 37.55-4.7L37.55-4.7Q36.75-3.25 35.75-2.25L35.75-2.25Q34.4-0.9 32.62-0.1 30.85 0.7 28.8 0.7L28.8 0.7Q28.1 0.7 27.72 0.03 27.35-0.65 27.35-1.45L27.35-1.45Q27.35-2.3 27.77-2.95 28.2-3.6 29.15-3.6ZM61.55 0.7L61.55 0.7Q60.9 0.7 60.5 0.1 60.1-0.5 60.1-1.45L60.1-1.45Q60.1-3.6 61.9-3.6L61.9-3.6Q63.5-3.6 64.77-5.23 66.05-6.85 67-10.65L67-10.65 68.5-16.5Q70.6-24.3 76.5-24.3L76.5-24.3Q78.65-24.3 80.17-23.08 81.7-21.85 82.35-19.7L82.35-19.7Q83.5-21.9 85.37-23.1 87.25-24.3 89.6-24.3L89.6-24.3Q94.5-24.3 96.25-19.25L96.25-19.25Q97.45-21.65 99.5-22.98 101.55-24.3 104.15-24.3L104.15-24.3Q107.7-24.3 109.6-22.05 111.5-19.8 111.5-15.7L111.5-15.7 111.5-8.75Q111.5-6 112.22-4.8 112.95-3.6 114.55-3.6L114.55-3.6Q115.25-3.6 115.62-3 116-2.4 116-1.4L116-1.4Q116-0.6 115.57 0.05 115.15 0.7 114.2 0.7L114.2 0.7Q106.95 0.7 106.95-8.2L106.95-8.2 106.95-14.6Q106.95-17.2 106-18.6 105.05-20 103.3-20L103.3-20Q100.65-20 99.12-16.98 97.59-13.95 97.59-8.6L97.59-8.6 97.59 0Q97.09 0.15 96.5 0.25 95.9 0.35 95.34 0.35L95.34 0.35Q94.15 0.35 93.05 0L93.05 0 93.05-13.9Q93.05-16.85 92.02-18.43 91-20 89-20L89-20Q87.15-20 85.8-18.57 84.45-17.15 83.67-14.58 82.9-12 82.9-8.6L82.9-8.6 82.9 0Q82.4 0.15 81.8 0.25 81.2 0.35 80.65 0.35L80.65 0.35Q79.4 0.35 78.4 0L78.4 0 78.4-15.95Q78.4-20 76.1-20L76.1-20Q75.05-20 74.3-19.05 73.55-18.1 73-16L73-16 71.15-8.8Q69.85-3.85 67.55-1.58 65.25 0.7 61.55 0.7ZM114.19 0.7L114.19 0.7Q113.54 0.7 113.14 0.1 112.74-0.5 112.74-1.45L112.74-1.45Q112.74-3.6 114.54-3.6L114.54-3.6Q116.14-3.6 117.42-5.23 118.69-6.85 119.64-10.65L119.64-10.65 121.14-16.5Q123.24-24.3 129.14-24.3L129.14-24.3Q131.29-24.3 132.82-23.08 134.34-21.85 134.99-19.7L134.99-19.7Q136.14-21.9 138.02-23.1 139.89-24.3 142.24-24.3L142.24-24.3Q147.14-24.3 148.89-19.25L148.89-19.25Q150.09-21.65 152.14-22.98 154.19-24.3 156.79-24.3L156.79-24.3Q160.34-24.3 162.24-22.05 164.14-19.8 164.14-15.7L164.14-15.7 164.14-8.75Q164.14-6 164.87-4.8 165.59-3.6 167.19-3.6L167.19-3.6Q167.89-3.6 168.27-3 168.64-2.4 168.64-1.4L168.64-1.4Q168.64-0.6 168.22 0.05 167.79 0.7 166.84 0.7L166.84 0.7Q159.59 0.7 159.59-8.2L159.59-8.2 159.59-14.6Q159.59-17.2 158.64-18.6 157.69-20 155.94-20L155.94-20Q153.29-20 151.77-16.98 150.24-13.95 150.24-8.6L150.24-8.6 150.24 0Q149.74 0.15 149.14 0.25 148.54 0.35 147.99 0.35L147.99 0.35Q146.79 0.35 145.69 0L145.69 0 145.69-13.9Q145.69-16.85 144.67-18.43 143.64-20 141.64-20L141.64-20Q139.79-20 138.44-18.57 137.09-17.15 136.32-14.58 135.54-12 135.54-8.6L135.54-8.6 135.54 0Q135.04 0.15 134.44 0.25 133.84 0.35 133.29 0.35L133.29 0.35Q132.04 0.35 131.04 0L131.04 0 131.04-15.95Q131.04-20 128.74-20L128.74-20Q127.69-20 126.94-19.05 126.19-18.1 125.64-16L125.64-16 123.79-8.8Q122.49-3.85 120.19-1.58 117.89 0.7 114.19 0.7ZM167.19-3.6L167.19-3.6Q168.89-3.6 170.52-5.28 172.14-6.95 173.24-9.8L173.24-9.8Q173.19-10.5 173.19-11.2L173.19-11.2Q173.19-15 174.69-17.95 176.19-20.9 178.77-22.6 181.34-24.3 184.64-24.3L184.64-24.3Q186.39-24.3 188.09-23.63 189.79-22.95 190.94-21.8L190.94-21.8 190.94-23.85Q191.39-24 191.99-24.1 192.59-24.2 193.24-24.2L193.24-24.2Q194.44-24.2 195.49-23.85L195.49-23.85 195.49-9.2Q195.49-6.55 196.31-5.08 197.14-3.6 199.09-3.6L199.09-3.6Q199.94-3.6 200.24-2.9 200.54-2.2 200.54-1.4L200.54-1.4Q200.54-0.6 200.12 0.05 199.69 0.7 198.74 0.7L198.74 0.7Q193.84 0.7 192.19-3.7L192.19-3.7Q190.74-1.65 188.56-0.48 186.39 0.7 183.74 0.7L183.74 0.7Q180.84 0.7 178.62-0.58 176.39-1.85 174.99-4.1L174.99-4.1Q171.89 0.7 166.84 0.7L166.84 0.7Q166.19 0.7 165.79 0.1 165.39-0.5 165.39-1.45L165.39-1.45Q165.39-3.6 167.19-3.6ZM177.84-11.2L177.84-11.2Q177.84-7.65 179.47-5.63 181.09-3.6 183.94-3.6L183.94-3.6Q187.09-3.6 189.02-5.75 190.94-7.9 190.94-11.4L190.94-11.4 190.94-17Q189.94-18.35 188.39-19.18 186.84-20 185.19-20L185.19-20Q183.04-20 181.39-18.85 179.74-17.7 178.79-15.73 177.84-13.75 177.84-11.2ZM198.74 0.7L198.74 0.7Q198.09 0.7 197.69 0.1 197.29-0.5 197.29-1.45L197.29-1.45Q197.29-3.6 199.09-3.6L199.09-3.6Q201.29-3.6 203.01-5.43 204.74-7.25 205.76-10.4 206.79-13.55 206.79-17.4L206.79-17.4Q206.79-18.3 206.69-19.05 206.59-19.8 206.44-20.3L206.44-20.3Q205.99-20.75 205.46-21.75 204.94-22.75 204.56-23.88 204.19-25 204.19-25.7L204.19-25.7Q204.79-26.65 206.11-27.18 207.44-27.7 209.04-27.45L209.04-27.45Q209.99-25.7 210.59-23.05L210.59-23.05Q212.09-23.1 214.64-23.7L214.64-23.7Q216.24-24.05 217.21-24.18 218.19-24.3 218.89-24.3L218.89-24.3Q221.59-24.3 223.14-22.28 224.69-20.25 224.69-16.8L224.69-16.8 224.69-8.75Q224.69-6 225.41-4.8 226.14-3.6 227.74-3.6L227.74-3.6Q228.44-3.6 228.81-3 229.19-2.4 229.19-1.4L229.19-1.4Q229.19-0.6 228.76 0.05 228.34 0.7 227.39 0.7L227.39 0.7Q220.14 0.7 220.14-8.2L220.14-8.2 220.14-15.95Q220.14-18.2 219.64-19.1 219.14-20 217.84-20L217.84-20Q217.39-20 216.84-19.9 216.29-19.8 214.89-19.5L214.89-19.5Q212.44-19 211.19-18.9L211.19-18.9Q211.24-18.1 211.24-17.3L211.24-17.3Q211.24-11.9 209.69-7.85 208.14-3.8 205.31-1.55 202.49 0.7 198.74 0.7ZM227.74-3.6L227.74-3.6Q228.79-3.6 229.99-4.25 231.19-4.9 232.24-6.25L232.24-6.25Q233.49-7.95 234.06-10.15 234.64-12.35 234.79-14.6L234.79-14.6 234.79-23.6Q235.24-23.75 235.84-23.85 236.44-23.95 237.09-23.95L237.09-23.95Q238.24-23.95 239.34-23.6L239.34-23.6 239.34-9.2Q239.34-6.55 240.16-5.08 240.99-3.6 242.94-3.6L242.94-3.6Q243.79-3.6 244.09-2.9 244.39-2.2 244.39-1.4L244.39-1.4Q244.39-0.6 243.96 0.05 243.54 0.7 242.59 0.7L242.59 0.7Q237.39 0.7 235.84-4.2L235.84-4.2Q235.14-3.05 234.34-2.25L234.34-2.25Q232.99-0.9 231.21-0.1 229.44 0.7 227.39 0.7L227.39 0.7Q226.69 0.7 226.31 0.03 225.94-0.65 225.94-1.45L225.94-1.45Q225.94-2.3 226.36-2.95 226.79-3.6 227.74-3.6ZM237.14-30.8L237.14-30.8Q235.74-30.8 234.74-31.8 233.74-32.8 233.74-34.2L233.74-34.2Q233.74-35.7 234.71-36.65 235.69-37.6 237.14-37.6L237.14-37.6Q238.64-37.6 239.59-36.65 240.54-35.7 240.54-34.2L240.54-34.2Q240.54-32.75 239.56-31.78 238.59-30.8 237.14-30.8ZM242.58 0.7L242.58 0.7Q241.93 0.7 241.53 0.1 241.13-0.5 241.13-1.45L241.13-1.45Q241.13-3.6 242.93-3.6L242.93-3.6Q245.13-3.6 246.86-5.43 248.58-7.25 249.61-10.4 250.63-13.55 250.63-17.4L250.63-17.4Q250.63-18.3 250.53-19.05 250.43-19.8 250.28-20.3L250.28-20.3Q249.83-20.75 249.31-21.75 248.78-22.75 248.41-23.88 248.03-25 248.03-25.7L248.03-25.7Q248.63-26.65 249.96-27.18 251.28-27.7 252.88-27.45L252.88-27.45Q253.68-26 254.23-23.95L254.23-23.95Q257.43-23.15 261.58-23.15L261.58-23.15Q263.73-23.15 265.93-23.35 268.13-23.55 269.48-23.9L269.48-23.9Q270.58-23.55 271.26-22.65 271.93-21.75 272.13-20.5L272.13-20.5 263.98-8.1Q264.93-8.35 265.83-8.35L265.83-8.35Q268.68-8.35 270.73-6.05 272.78-3.75 273.88 0.48 274.98 4.7 274.98 10.6L274.98 10.6Q274.98 18.35 272.76 22.03 270.53 25.7 265.68 25.7L265.68 25.7Q262.23 25.7 260.03 23.38 257.83 21.05 257.83 17.35L257.83 17.35Q257.83 12.75 260.73 8.03 263.63 3.3 268.98-1L268.98-1Q267.68-4.3 265.03-4.3L265.03-4.3Q263.73-4.3 262.53-3.48 261.33-2.65 259.88-0.7L259.88-0.7 258.98 0.55Q257.83 0.3 256.83-0.4 255.83-1.1 255.43-2.05L255.43-2.05 266.48-19.2Q265.28-19.1 263.88-19.03 262.48-18.95 261.68-18.95L261.68-18.95Q257.73-18.95 254.98-19.5L254.98-19.5Q255.08-18.4 255.08-17.3L255.08-17.3Q255.08-11.9 253.53-7.85 251.98-3.8 249.16-1.55 246.33 0.7 242.58 0.7ZM262.23 16.85L262.23 16.85Q262.23 19 263.21 20.25 264.18 21.5 265.88 21.5L265.88 21.5Q268.33 21.5 269.36 18.98 270.38 16.45 270.38 10.55L270.38 10.55Q270.38 6.45 270.03 3.55L270.03 3.55Q262.23 10.25 262.23 16.85ZM277.33 0.7L277.33 0.7Q276.68 0.7 276.28 0.1 275.88-0.5 275.88-1.45L275.88-1.45Q275.88-3.6 277.68-3.6L277.68-3.6Q279.88-3.6 281.61-5.43 283.33-7.25 284.36-10.4 285.38-13.55 285.38-17.4L285.38-17.4Q285.38-18.3 285.28-19.05 285.18-19.8 285.03-20.3L285.03-20.3Q284.58-20.75 284.06-21.75 283.53-22.75 283.16-23.88 282.78-25 282.78-25.7L282.78-25.7Q283.38-26.65 284.71-27.18 286.03-27.7 287.63-27.45L287.63-27.45Q288.43-26 288.98-23.95L288.98-23.95Q292.18-23.15 296.33-23.15L296.33-23.15Q298.48-23.15 300.68-23.35 302.88-23.55 304.23-23.9L304.23-23.9Q305.33-23.55 306-22.65 306.68-21.75 306.88-20.5L306.88-20.5 298.73-8.1Q299.68-8.35 300.58-8.35L300.58-8.35Q303.43-8.35 305.48-6.05 307.53-3.75 308.63 0.48 309.73 4.7 309.73 10.6L309.73 10.6Q309.73 18.35 307.5 22.03 305.28 25.7 300.43 25.7L300.43 25.7Q296.98 25.7 294.78 23.38 292.58 21.05 292.58 17.35L292.58 17.35Q292.58 12.75 295.48 8.03 298.38 3.3 303.73-1L303.73-1Q302.43-4.3 299.78-4.3L299.78-4.3Q298.48-4.3 297.28-3.48 296.08-2.65 294.63-0.7L294.63-0.7 293.73 0.55Q292.58 0.3 291.58-0.4 290.58-1.1 290.18-2.05L290.18-2.05 301.23-19.2Q300.03-19.1 298.63-19.03 297.23-18.95 296.43-18.95L296.43-18.95Q292.48-18.95 289.73-19.5L289.73-19.5Q289.83-18.4 289.83-17.3L289.83-17.3Q289.83-11.9 288.28-7.85 286.73-3.8 283.91-1.55 281.08 0.7 277.33 0.7ZM296.98 16.85L296.98 16.85Q296.98 19 297.96 20.25 298.93 21.5 300.63 21.5L300.63 21.5Q303.08 21.5 304.11 18.98 305.13 16.45 305.13 10.55L305.13 10.55Q305.13 6.45 304.78 3.55L304.78 3.55Q296.98 10.25 296.98 16.85Z" opacity="1" transform="matrix(1,0,0,1,0,0)" fill="black" class="wordmark-text-0" id="SvgjsPath3543"></path></svg></g></svg></g></svg></g></svg></g><g></g></svg></g><defs><mask></mask></defs></svg><rect width="395.52" height="110.9869614889576" fill="black" stroke="none" visibility="hidden"></rect></g></mask><linearGradient x1="0" x2="1" y1="0.548" y2="0.55" id="6b6a971b-741e-4929-9cd5-fd2300fdb99a"><stop stop-color="#ff6cab" offset="0"></stop><stop stop-color="#7366ff" offset="1"></stop></linearGradient></svg><rect width="395.52" height="110.9869614889576" fill="none" stroke="none" visibility="hidden"></rect></g></svg></g></svg>